<svg width="37" height="37" viewBox="0 0 37 37" fill="none" xmlns="http://www.w3.org/2000/svg">
<path d="M14.2974 9.86659C14.4923 9.86659 15.1063 9.84232 15.6564 9.39335C16.4589 8.73808 16.4403 7.73658 16.4355 7.61523C16.4355 7.70179 16.4541 8.87561 17.39 9.45321C17.852 9.73878 18.3212 9.74525 18.5388 9.73392C18.2815 9.80754 17.6004 10.0397 17.0616 10.7087C16.6345 11.2386 16.5042 11.7855 16.4589 12.054C16.4314 11.8146 16.3368 11.2766 15.9258 10.7686C15.328 10.0292 14.4964 9.89329 14.2974 9.86659Z" fill="black"/>
<path d="M17.9255 25.8395C16.7403 27.2414 15.1636 27.9186 13.8499 27.5319C12.8993 27.2528 12.3492 26.494 12.0459 26.0757C11.0913 24.7603 10.9764 23.1416 10.8591 21.4856C10.8057 20.7301 10.8357 20.4008 10.6852 19.7132C10.593 19.2925 10.3996 18.4108 9.83012 17.4497C9.49521 16.8834 9.32937 16.7969 9.10205 16.2468C8.88768 15.7282 8.69595 15.2647 8.86745 14.7558C9.12147 14.0027 9.96765 13.7576 10.0307 13.7406C10.6957 13.5594 11.427 13.7907 11.9399 14.3263C12.812 15.6214 13.5392 16.7135 14.1621 17.6155C14.332 17.8623 14.6289 18.2894 14.6475 18.8864C14.6661 19.5101 14.3709 20.0085 14.1678 20.2859" stroke="black" stroke-width="0.561068" stroke-miterlimit="10" stroke-linecap="round"/>
<path d="M13.7285 16.9846C13.9202 17.1853 14.311 17.5291 14.8311 17.5452C15.0746 17.5533 15.3699 17.4902 16.2242 16.8964C17.0137 16.3472 17.4587 15.9313 17.4587 15.9313C18.194 15.2259 18.9892 14.5828 19.706 13.8588C20.7568 12.7982 22.1369 11.4448 23.9636 9.67884C24.0817 9.5947 24.6601 9.20154 25.3566 9.36253C26.1826 9.55264 26.7165 10.415 26.6704 11.2143C26.6364 11.7991 26.2732 12.219 26.0895 12.422C24.5913 14.0796 22.6846 15.8569 22.035 16.4572" stroke="black" stroke-width="0.561068" stroke-miterlimit="10" stroke-linecap="round"/>
<path d="M12.6169 26.7706C13.0861 27.3782 14.353 28.8456 16.5493 29.5389C19.1113 30.3479 21.268 29.5769 21.9112 29.3359C23.0842 28.8974 23.8389 28.3214 24.8235 27.5634C26.4479 26.3128 27.5723 25.0257 28.2875 24.0938" stroke="black" stroke-width="0.561068" stroke-miterlimit="10" stroke-linecap="round"/>
<path d="M22.2915 16.2228L21.1255 17.3033C20.4448 17.934 20.4043 18.997 21.0348 19.6774C21.6654 20.3579 22.7284 20.3983 23.409 19.7675L24.575 18.6871C25.2557 18.0563 25.2963 16.9934 24.6657 16.3129C24.0351 15.6324 22.9721 15.5921 22.2915 16.2228Z" stroke="black" stroke-width="0.561068" stroke-miterlimit="10" stroke-linecap="round"/>
<path d="M24.1679 19.0967L23.0903 20.0952C22.4615 20.678 22.4241 21.6602 23.0068 22.2891C23.5896 22.9179 24.5718 22.9553 25.2007 22.3726L26.2782 21.374C26.9071 20.7913 26.9445 19.8091 26.3618 19.1802C25.779 18.5513 24.7968 18.5139 24.1679 19.0967Z" stroke="black" stroke-width="0.561068" stroke-miterlimit="10" stroke-linecap="round"/>
<path d="M25.9331 21.6948L25.1285 22.4404C24.4993 23.0234 24.4619 24.0062 25.045 24.6354L25.2204 24.8247C25.8034 25.4539 26.7862 25.4913 27.4154 24.9082L28.22 24.1626C28.8492 23.5796 28.8866 22.5968 28.3035 21.9676L28.1281 21.7783C27.5451 21.1491 26.5623 21.1117 25.9331 21.6948Z" stroke="black" stroke-width="0.561068" stroke-miterlimit="10" stroke-linecap="round"/>
<path d="M18.7585 36.5169C28.5662 36.5169 36.5169 28.5662 36.5169 18.7585C36.5169 8.95074 28.5662 1 18.7585 1C8.95074 1 1 8.95074 1 18.7585C1 28.5662 8.95074 36.5169 18.7585 36.5169Z" stroke="black" stroke-width="0.561068" stroke-miterlimit="10"/>
</svg>
