<svg width="65" height="65" viewBox="0 0 65 65" fill="none" xmlns="http://www.w3.org/2000/svg">
<path d="M24.6995 16.8041C25.0469 16.8041 26.1413 16.7609 27.1217 15.9607C28.5521 14.7928 28.5189 13.0078 28.5102 12.7915C28.5102 12.9458 28.5434 15.0379 30.2116 16.0674C31.0349 16.5763 31.8712 16.5879 32.259 16.5677C31.8005 16.6989 30.5865 17.1127 29.6262 18.3051C28.8649 19.2495 28.6328 20.2242 28.5521 20.7029C28.503 20.2761 28.3343 19.3173 27.6019 18.4118C26.5364 17.0939 25.0542 16.8517 24.6995 16.8041Z" fill="black"/>
<path d="M31.1661 45.2757C29.0538 47.7744 26.2437 48.9812 23.9022 48.292C22.208 47.7946 21.2276 46.4421 20.6869 45.6967C18.9855 43.3523 18.7808 40.4671 18.5717 37.5157C18.4765 36.169 18.5299 35.5822 18.2617 34.3566C18.0973 33.6069 17.7527 32.0353 16.7377 30.3224C16.1408 29.3131 15.8452 29.1588 15.44 28.1784C15.0579 27.2542 14.7162 26.428 15.0219 25.5211C15.4746 24.1787 16.9828 23.7418 17.0952 23.7116C18.2804 23.3886 19.5839 23.801 20.498 24.7554C22.0523 27.0638 23.3485 29.0103 24.4587 30.618C24.7615 31.0577 25.2906 31.819 25.3238 32.8831C25.357 33.9947 24.8307 34.8829 24.4688 35.3775" stroke="black" stroke-miterlimit="10" stroke-linecap="round"/>
<path d="M23.6859 29.4921C24.0276 29.8497 24.724 30.4625 25.6511 30.4913C26.0851 30.5057 26.6114 30.3933 28.134 29.335C29.5412 28.356 30.3342 27.6149 30.3342 27.6149C31.6449 26.3576 33.0622 25.2113 34.3396 23.9209C36.2126 22.0306 38.6724 19.6184 41.928 16.4709C42.1385 16.321 43.1695 15.6202 44.4109 15.9071C45.883 16.246 46.8346 17.783 46.7524 19.2075C46.6919 20.25 46.0445 20.9983 45.7172 21.3602C43.0469 24.3145 39.6485 27.4822 38.4907 28.5521" stroke="black" stroke-miterlimit="10" stroke-linecap="round"/>
<path d="M21.7048 46.9341C22.5411 48.0169 24.799 50.6324 28.7136 51.8681C33.2799 53.3099 37.1238 51.9359 38.2701 51.5062C40.3608 50.7247 41.706 49.6981 43.4607 48.3471C46.3559 46.118 48.3601 43.8241 49.6347 42.1631" stroke="black" stroke-miterlimit="10" stroke-linecap="round"/>
<path d="M38.9477 28.133L36.8696 30.0588C35.6564 31.1829 35.5841 33.0774 36.708 34.2903C37.8319 35.5031 39.7264 35.575 40.9396 34.4509L43.0177 32.5251C44.2308 31.401 44.3032 29.5064 43.1793 28.2936C42.0554 27.0807 40.1608 27.0089 38.9477 28.133Z" stroke="black" stroke-miterlimit="10" stroke-linecap="round"/>
<path d="M42.2918 33.2591L40.3713 35.0388C39.2504 36.0774 39.1838 37.8281 40.2224 38.9489C41.2611 40.0698 43.0117 40.1364 44.1326 39.0978L46.0531 37.3181C47.174 36.2794 47.2406 34.5288 46.202 33.4079C45.1633 32.2871 43.4127 32.2204 42.2918 33.2591Z" stroke="black" stroke-miterlimit="10" stroke-linecap="round"/>
<path d="M45.4383 37.8891L44.0042 39.218C42.8827 40.2572 42.8161 42.0087 43.8553 43.1302L44.1679 43.4675C45.2071 44.589 46.9586 44.6556 48.0801 43.6164L49.5141 42.2875C50.6356 41.2484 50.7022 39.4968 49.663 38.3754L49.3504 38.038C48.3112 36.9166 46.5597 36.8499 45.4383 37.8891Z" stroke="black" stroke-miterlimit="10" stroke-linecap="round"/>
<path d="M32.6512 64.3024C50.1317 64.3024 64.3024 50.1317 64.3024 32.6512C64.3024 15.1707 50.1317 1 32.6512 1C15.1707 1 1 15.1707 1 32.6512C1 50.1317 15.1707 64.3024 32.6512 64.3024Z" stroke="black" stroke-miterlimit="10"/>
</svg>
