<svg width="90" height="90" viewBox="0 0 90 90" fill="none" xmlns="http://www.w3.org/2000/svg">
<g clip-path="url(#clip0_4044_1459)">
<path d="M89.2632 17.3181C89.2632 17.3181 89.6015 12.0422 84.983 3.60454C84.5704 2.85187 83.9873 2.5834 83.1236 2.8231C78.5651 4.08635 74.3185 5.97522 70.6525 9.01468C65.9908 12.8763 64.0186 17.8382 64.6856 23.8452C64.7912 24.8016 64.9375 25.7533 65.0647 26.7097C64.5128 26.1967 64.009 25.6957 63.4716 25.2355C61.665 23.6894 59.6208 22.3495 58.0949 20.5661C56.5642 18.7779 55.5733 16.5342 54.2922 14.5255C53.9755 14.0269 53.6204 13.5523 53.2557 13.0849C52.8718 12.5072 52.2576 11.6203 51.4275 10.6039C50.0311 8.89962 44.1866 1.76121 34.8249 0.291819C32.0082 -0.149238 29.9064 -0.0653414 27.3945 0.375716C19.2251 1.81155 12.4497 5.98241 6.25249 11.2559C5.6191 11.7953 5.55672 12.4473 5.93579 13.1784C8.90843 18.9289 12.5984 24.1281 17.5528 28.3637C17.6872 28.4787 17.7856 28.6321 17.9151 28.7831C17.7472 28.9413 17.6152 29.0708 17.4785 29.1954C9.621 36.365 6.05575 45.2581 7.44251 55.7979C8.4046 63.1089 11.6052 68.0036 12.2889 69.0128C15.3527 73.5384 19.0116 76.1848 21.2284 77.5463C23.7476 79.1595 26.0533 80.1159 27.7615 80.6936C28.5389 80.9573 30.3791 81.5422 32.6847 81.9041C34.1867 82.139 35.6982 82.2565 37.2121 82.2565C38.9731 82.2565 40.7389 82.0983 42.488 81.7795C45.0024 81.3744 53.2509 79.7204 59.9039 72.3759C66.3483 65.2614 67.2408 57.2769 67.4735 54.8678C67.6798 52.7297 68.1309 46.6483 65.2038 39.9126C63.0733 35.0083 59.5273 30.7463 54.6209 27.1316C54.4025 26.971 54.1914 26.8032 53.9563 26.6234C55.2063 25.6454 56.3963 24.7106 57.5719 23.7901C57.6631 23.8212 57.7278 23.8284 57.7782 23.862C57.9822 24.001 58.1909 24.1377 58.3828 24.2935C69.3209 33.2057 73.9298 44.618 71.4322 58.5473C67.7494 79.078 45.9165 91.6553 26.1709 84.8094C10.1104 79.241 0.580725 63.49 3.06872 46.6172C3.21747 45.6056 2.85759 45.0016 2.02746 44.8697C1.15414 44.7331 0.662298 45.1454 0.494353 46.1689C-0.29979 50.9702 -0.141442 55.7475 1.00059 60.4673C5.83503 80.4467 25.2759 92.6885 45.3383 88.4217C67.8214 83.6396 80.7316 59.2664 72.044 38.007C71.9217 37.7073 71.8233 37.3981 71.7009 37.0601C72.116 36.9187 72.4351 36.8109 72.7566 36.7006C74.5416 36.0941 79.7311 34.2196 83.186 31.1251C88.6778 26.2063 89.1961 18.6484 89.2632 17.3157V17.3181ZM28.0518 2.9046C28.2774 2.84947 28.6804 3.00767 28.822 3.19704C32.2433 7.81615 35.6382 12.452 39.1938 17.3013C37.4088 16.9657 35.8517 16.6804 34.297 16.3832C32.7471 16.086 31.1972 15.7983 29.6545 15.4651C29.3186 15.3932 28.906 15.2374 28.7164 14.9809C26.2404 11.6586 23.8004 8.31234 21.1253 4.66883C23.5797 4.03601 25.8086 3.44633 28.0494 2.907L28.0518 2.9046ZM38.8364 20.0627C37.7735 20.8417 36.737 21.604 35.6982 22.3638C32.3776 24.7944 29.0499 27.2155 25.7462 29.6676C25.2663 30.0248 24.9041 30.1135 24.345 29.8187C22.037 28.5986 19.9569 27.0812 18.0063 25.2571C21.3196 22.8313 24.561 20.4534 27.8191 18.0947C28.0159 17.9533 28.3493 17.8886 28.5917 17.9341C31.9314 18.5717 35.2687 19.2333 38.6036 19.8949C38.6588 19.9069 38.7044 19.9644 38.8388 20.0627H38.8364ZM18.8556 5.99919C20.9118 8.80134 22.9823 11.6227 25.1584 14.5902C20.024 13.5906 15.0864 12.6318 10.1176 11.6658C11.0269 10.4649 16.4156 6.97719 18.858 6.00159L18.8556 5.99919ZM16.1397 23.385C13.5797 20.6068 11.4204 17.6129 9.48665 14.2067C14.5994 15.2039 19.4842 16.1555 24.6305 17.1598C21.6963 19.3124 18.9492 21.3259 16.1397 23.3874V23.385ZM18.8508 72.3998C15.7006 69.5641 13.4526 66.2706 11.8859 62.4928C9.53463 56.8286 9.08597 49.1461 10.8734 44.3592C11.6411 45.7686 12.3705 47.0247 13.0207 48.3191C13.9804 50.2319 15.4007 51.5167 17.5384 51.9722C18.1071 52.0944 18.6469 52.3557 19.1939 52.5691C20.0432 52.9022 20.3047 53.5375 19.9857 54.3596C19.5154 55.5678 18.9924 56.7567 18.4885 57.9504C17.8767 59.4006 17.205 60.8293 16.6699 62.3083C16.2285 63.5236 16.3964 64.7125 17.0874 65.8631C18.3734 68.006 18.93 70.1514 18.8508 72.3974V72.3998ZM64.5632 56.9053C63.2005 65.0217 58.3588 70.0387 56.7706 71.5944C56.7706 71.5944 48.1597 80.0296 35.9165 79.4591C34.4986 79.392 33.1094 79.1787 33.1094 79.1787C30.4967 78.7712 27.9895 77.985 25.6238 76.8392C25.2687 76.6666 25.3431 76.6834 24.9041 76.458C23.9132 75.9499 22.9535 75.3842 21.9674 74.864C21.8666 74.8113 21.6459 74.6962 21.5092 74.4541C21.3868 74.2384 21.3724 73.9771 21.4132 73.6511C21.7515 70.9328 21.3988 68.2434 20.0216 65.9182C18.9108 64.0413 19.0715 62.4689 20.0456 60.743C20.3047 60.2852 20.5231 59.8033 20.7246 59.3191C21.3436 57.8378 22.0538 56.3804 22.5312 54.8534C23.1526 52.8615 22.3681 51.2219 20.4967 50.3062C19.7505 49.9419 18.9612 49.6159 18.155 49.4265C16.8787 49.1269 16.0437 48.4006 15.4247 47.2668C14.3571 45.3132 13.203 43.4075 12.109 41.4659C12.0106 41.2909 12.0154 40.9841 12.0994 40.7947C13.9444 36.6814 16.6219 33.2081 20.1776 30.3604C23.4549 32.5873 27.0274 34.0111 31.1181 34.4761C30.7246 34.8165 30.4919 35.0131 30.2639 35.2192C28.2126 37.0769 26.6963 39.2319 26.31 42.0628C25.667 46.773 28.8796 50.8624 33.6084 51.0301C35.6934 51.1045 37.8023 50.7425 39.8896 50.4812C42.5384 50.1504 42.8335 50.2847 42.9558 52.9622C43.0998 56.1167 43.035 59.2832 43.1861 62.4377C43.2629 64.0341 43.4477 65.6641 43.8819 67.1934C44.6425 69.8662 46.8306 71.0671 49.4553 70.1826C53.8435 68.7012 56.773 65.6521 57.8118 61.1289C58.1549 59.6356 57.6991 57.9504 57.5671 56.3564C57.4064 54.4052 57.1112 52.4276 58.2965 50.6778C59.7816 48.4845 62.0512 47.2812 64.2993 46.0083C65.1103 48.6475 65.2062 53.0796 64.5632 56.9053ZM63.6323 43.3045C62.236 44.1722 60.9452 44.9656 59.664 45.7758C55.6741 48.2975 54.1866 51.9171 54.9495 56.5218C55.0455 57.1019 55.1295 57.6844 55.2159 58.2668C55.7797 62.1117 52.5791 66.7883 48.75 67.7184C47.464 68.03 46.6338 67.6609 46.3483 66.3617C46.0316 64.921 45.8493 63.4325 45.7869 61.9583C45.6549 58.8349 45.6885 55.7044 45.547 52.581C45.5038 51.615 45.2111 50.625 44.8488 49.719C44.2178 48.1417 43.0878 47.4921 41.3939 47.6695C39.3618 47.8852 37.3392 48.1896 35.3119 48.4485C35.0048 48.4869 34.6929 48.4917 34.3834 48.4941C30.4175 48.5132 27.9319 45.0663 29.1675 41.2646C29.892 39.0353 31.4779 37.494 33.3037 36.1517C34.0523 35.6027 34.8153 35.073 35.5806 34.548C35.7534 34.4306 35.9621 34.3275 36.1636 34.3011C41.3867 33.5892 46.1084 31.5517 50.5398 28.7975C51.3003 28.3253 51.809 28.3756 52.5095 28.8455C57.8286 32.429 61.5402 37.2279 63.6299 43.3045H63.6323ZM53.6468 23.5432C48.8123 27.1484 43.6444 30.0847 37.6799 31.3863C34.5178 32.0743 31.3532 32.1342 28.0159 31.2401C30.9597 29.0828 33.7308 27.0525 36.5019 25.0222C38.3013 23.7038 40.0935 22.3734 41.9146 21.0838C42.2121 20.8729 42.6631 20.6883 42.9942 20.7506C46.6482 21.429 50.2903 22.1577 53.9371 22.8744C54.0258 22.8912 54.1098 22.9391 54.2826 23.0063C54.045 23.2076 53.8579 23.3874 53.6492 23.5432H53.6468ZM54.7504 20.3551C50.926 19.6072 47.0993 18.8713 43.2797 18.0923C43.0038 18.0372 42.7495 17.7016 42.56 17.4427C39.1219 12.778 35.6958 8.1062 32.2673 3.43195C32.1113 3.21862 31.9818 2.9885 31.7754 2.6601C33.2582 2.72243 35.4606 2.96453 37.963 3.83226C42.4544 5.38794 45.2759 8.04627 46.7058 9.41738C48.6516 11.2895 50.1079 13.327 53.0182 17.3996C53.8315 18.5382 54.4865 19.497 54.9352 20.1634C54.8752 20.2281 54.8128 20.2928 54.7528 20.3551H54.7504ZM81.4154 6.08069C79.3544 11.009 77.3775 15.7312 75.307 20.6811C74.0138 17.553 72.8142 14.6453 71.593 11.685C74.3833 9.10816 77.6582 7.44701 81.4154 6.07829V6.08069ZM70.2062 32.8174C70.1846 32.8677 70.1198 32.9013 70.0743 32.942C66.7849 26.5659 65.8708 18.2146 69.7072 13.9838C71.0579 17.2605 72.4015 20.5037 73.7259 23.7565C73.8074 23.9555 73.7978 24.2455 73.7139 24.4469C72.5574 27.2418 71.3818 30.0296 70.2062 32.8198V32.8174ZM83.6395 27.0093C81.2258 29.869 76.4802 32.8629 72.6078 33.9176C73.9082 30.8134 75.1438 27.8507 76.401 24.8975C76.485 24.701 76.7201 24.5212 76.9288 24.4325C80.0406 23.1357 83.1596 21.8533 86.2786 20.5732C86.3242 20.5541 86.389 20.5828 86.5041 20.5948C86.2114 23.035 85.211 25.1492 83.6395 27.0093ZM86.1634 17.7519C83.5195 18.8833 80.854 19.9716 77.9461 21.1725C79.9399 16.4024 81.8496 11.836 83.7594 7.26963C83.8626 7.24805 83.9634 7.22888 84.0665 7.2073C84.7575 9.403 85.4989 11.5819 86.1179 13.7968C86.4082 14.8323 86.4921 15.9302 86.5929 17.0064C86.6145 17.2461 86.3794 17.6584 86.161 17.7519H86.1634Z" fill="black"/>
</g>
<defs>
<clipPath id="clip0_4044_1459">
<rect width="90" height="90" fill="white"/>
</clipPath>
</defs>
</svg>
