<svg width="121" height="121" viewBox="0 0 121 121" fill="none" xmlns="http://www.w3.org/2000/svg">
<path d="M120.993 23.4739C120.993 23.4739 121.451 16.3226 115.191 4.8858C114.632 3.86558 113.841 3.50168 112.671 3.82659C106.492 5.53887 100.736 8.09916 95.7664 12.219C89.4477 17.4533 86.7745 24.1789 87.6786 32.3212C87.8216 33.6176 88.02 34.9075 88.1924 36.2038C87.4444 35.5085 86.7615 34.8295 86.033 34.2057C83.5842 32.11 80.8135 30.2937 78.7452 27.8764C76.6704 25.4526 75.3273 22.4114 73.5907 19.6887C73.1614 19.0129 72.6801 18.3696 72.1858 17.736C71.6655 16.9529 70.833 15.7508 69.7078 14.3732C67.8151 12.0631 59.8931 2.38724 47.2036 0.395548C43.3857 -0.202286 40.5369 -0.0885675 37.132 0.509266C26.0588 2.45548 16.875 8.1089 8.47498 15.2569C7.61644 15.988 7.53189 16.8717 8.04571 17.8627C12.075 25.6573 17.0766 32.7046 23.7921 38.4457C23.9742 38.6017 24.1076 38.8096 24.2832 39.0143C24.0555 39.2288 23.8767 39.4042 23.6913 39.5732C13.0409 49.2912 8.20832 61.3454 10.088 75.6316C11.3921 85.5414 15.7303 92.176 16.6571 93.5439C20.81 99.6782 25.7694 103.265 28.7743 105.111C32.1889 107.297 35.3141 108.594 37.6296 109.377C38.6832 109.734 41.1776 110.527 44.3028 111.018C46.3386 111.336 48.3873 111.495 50.4394 111.495C52.8264 111.495 55.2199 111.281 57.5906 110.849C60.9988 110.299 72.1793 108.058 81.1972 98.1024C89.9322 88.4591 91.142 77.6363 91.4574 74.371C91.7371 71.4728 92.3485 63.2298 88.381 54.0999C85.4932 47.4522 80.6867 41.6753 74.0362 36.7757C73.7403 36.558 73.4541 36.3306 73.1354 36.0869C74.8297 34.7612 76.4427 33.4941 78.0362 32.2464C78.1598 32.2887 78.2476 32.2984 78.3159 32.3439C78.5923 32.5324 78.8753 32.7176 79.1354 32.9288C93.9615 45.0089 100.209 60.4778 96.8233 79.3583C91.8314 107.187 62.2378 124.235 35.4735 114.955C13.7043 107.408 0.787148 86.058 4.15952 63.1876C4.36115 61.8165 3.87334 60.9977 2.74813 60.819C1.56439 60.6338 0.897717 61.1926 0.670074 62.58C-0.406353 69.088 -0.191718 75.5634 1.35626 81.9609C7.90913 109.042 34.2605 125.635 61.4541 119.852C91.929 113.37 109.428 80.3331 97.6526 51.5168C97.4867 51.1107 97.3534 50.6916 97.1875 50.2334C97.7501 50.0417 98.1827 49.8955 98.6184 49.7461C101.038 48.9241 108.072 46.3833 112.755 42.1887C120.199 35.5215 120.901 25.2771 120.993 23.4706V23.4739ZM38.0231 3.93706C38.3288 3.86233 38.8751 4.07677 39.067 4.33345C43.7044 10.5945 48.306 16.8782 53.1256 23.4511C50.7061 22.9963 48.5955 22.6096 46.4881 22.2067C44.3873 21.8038 42.2865 21.414 40.1954 20.9623C39.7402 20.8649 39.1808 20.6537 38.9239 20.306C35.5678 15.8028 32.2604 11.267 28.6344 6.3284C31.9613 5.47064 34.9824 4.67136 38.0198 3.94031L38.0231 3.93706ZM52.641 27.1941C51.2004 28.2501 49.7955 29.2833 48.3873 30.3132C43.8865 33.6078 39.3759 36.8894 34.8979 40.2132C34.2474 40.6973 33.7564 40.8176 32.9987 40.4179C29.8702 38.7641 27.0507 36.7075 24.4068 34.2349C28.8978 30.9468 33.2913 27.7237 37.7076 24.5266C37.9743 24.3349 38.4263 24.2472 38.7548 24.3089C43.2816 25.1732 47.8052 26.0699 52.3256 26.9667C52.4004 26.9829 52.4622 27.0609 52.6443 27.1941H52.641ZM25.558 8.13165C28.345 11.9298 31.1515 15.754 34.1011 19.7764C27.1417 18.4215 20.449 17.1219 13.714 15.8125C14.9466 14.1847 22.2507 9.45728 25.5612 8.1349L25.558 8.13165ZM21.8767 31.6973C18.4067 27.9316 15.4799 23.8735 12.8587 19.2566C19.7889 20.6082 26.41 21.8981 33.3857 23.2594C29.4084 26.1771 25.6848 28.9064 21.8767 31.7006V31.6973ZM25.5515 98.1349C21.2815 94.2912 18.2344 89.8269 16.1108 84.7064C12.9238 77.0287 12.3156 66.6154 14.7384 60.1269C15.7791 62.0374 16.7677 63.7399 17.649 65.4945C18.9498 68.0872 20.875 69.8288 23.7726 70.4461C24.5433 70.6118 25.2751 70.9659 26.0165 71.2551C27.1677 71.7067 27.5222 72.5677 27.0897 73.6822C26.4523 75.3197 25.7433 76.9313 25.0604 78.5493C24.2311 80.515 23.3206 82.4515 22.5954 84.4562C21.997 86.1035 22.2246 87.715 23.1612 89.2746C24.9043 92.1793 25.6588 95.0872 25.5515 98.1316V98.1349ZM87.5127 77.1327C85.6655 88.1342 79.1029 94.9345 76.9501 97.0432C76.9501 97.0432 65.2785 108.477 48.6833 107.703C46.7613 107.612 44.8784 107.323 44.8784 107.323C41.3369 106.771 37.9385 105.705 34.732 104.152C34.2507 103.918 34.3515 103.941 33.7564 103.636C32.4133 102.947 31.1125 102.18 29.7759 101.475C29.6393 101.403 29.3401 101.248 29.1547 100.919C28.9889 100.627 28.9694 100.273 29.0247 99.8309C29.4832 96.1464 29.0051 92.5009 27.1385 89.3493C25.6328 86.8053 25.8507 84.6739 27.171 82.3345C27.5222 81.7139 27.8182 81.0609 28.0913 80.4046C28.9304 78.3966 29.893 76.4212 30.5401 74.3515C31.3824 71.6515 30.319 69.4291 27.7824 68.188C26.771 67.6941 25.7011 67.2522 24.6084 66.9955C22.8783 66.5894 21.7466 65.6049 20.9076 64.0681C19.4604 61.4201 17.8962 58.8371 16.4132 56.2053C16.2799 55.9681 16.2864 55.5522 16.4002 55.2955C18.901 49.7201 22.5303 45.0121 27.3499 41.1522C31.7922 44.1706 36.6344 46.1006 42.1792 46.7309C41.6459 47.1923 41.3304 47.4587 41.0215 47.7381C38.241 50.2562 36.1857 53.1771 35.6621 57.0143C34.7905 63.3988 39.145 68.9417 45.5548 69.1692C48.3808 69.2699 51.2394 68.7793 54.0687 68.4251C57.6589 67.9768 58.0589 68.1587 58.2248 71.7879C58.4199 76.0638 58.3321 80.3558 58.537 84.6316C58.641 86.7955 58.8914 89.0049 59.4801 91.0778C60.511 94.7006 63.4768 96.3284 67.0346 95.1295C72.9826 93.1215 76.9533 88.9887 78.3615 82.8576C78.8265 80.8334 78.2086 78.5493 78.0297 76.3887C77.8119 73.7439 77.4118 71.0634 79.0184 68.6916C81.0314 65.7186 84.1078 64.0876 87.155 62.3623C88.2542 65.9396 88.3843 71.9472 87.5127 77.1327ZM86.2509 58.6973C84.3582 59.8735 82.6086 60.949 80.872 62.0472C75.4639 65.4652 73.4476 70.3713 74.4818 76.6129C74.6118 77.3991 74.7257 78.1887 74.8427 78.9782C75.607 84.1898 71.2687 90.5287 66.0785 91.7894C64.3354 92.2118 63.2102 91.7114 62.8232 89.9504C62.3939 87.9977 62.1467 85.98 62.0622 83.9818C61.8833 79.7482 61.9289 75.5049 61.737 71.2713C61.6785 69.962 61.2817 68.6201 60.7906 67.3919C59.9354 65.254 58.4036 64.3735 56.1077 64.6139C53.3532 64.9064 50.6117 65.319 47.8638 65.6699C47.4475 65.7219 47.0247 65.7284 46.6052 65.7316C41.2296 65.7576 37.8605 61.0854 39.5353 55.9324C40.5174 52.9107 42.667 50.8215 45.1418 49.002C46.1564 48.258 47.1906 47.5399 48.228 46.8284C48.4621 46.6692 48.7451 46.5295 49.0182 46.4937C56.0979 45.5288 62.498 42.767 68.5045 39.0338C69.5354 38.3937 70.2248 38.462 71.1744 39.0988C78.3842 43.9562 83.4151 50.4609 86.2477 58.6973H86.2509ZM72.7159 31.9118C66.163 36.7984 59.1581 40.7786 51.0735 42.5428C46.7873 43.4753 42.4979 43.5565 37.9743 42.3446C41.9646 39.4204 45.7207 36.6685 49.4768 33.9165C51.9158 32.1295 54.3451 30.3262 56.8134 28.5782C57.2166 28.2923 57.828 28.0421 58.2768 28.1266C63.2297 29.0461 68.1663 30.0338 73.1094 31.0053C73.2297 31.028 73.3435 31.093 73.5777 31.184C73.2557 31.4569 73.0021 31.7006 72.7191 31.9118H72.7159ZM74.2118 27.5905C69.0281 26.5768 63.8411 25.5793 58.6638 24.5233C58.2898 24.4486 57.9451 23.9937 57.6882 23.6428C53.028 17.3201 48.3841 10.9876 43.7369 4.65186C43.5255 4.3627 43.3499 4.05078 43.0702 3.60566C45.08 3.69013 48.0654 4.01829 51.4573 5.19446C57.5451 7.30313 61.3695 10.9064 63.3077 12.7649C65.9451 15.3024 67.9191 18.0641 71.8639 23.5844C72.9663 25.1277 73.8541 26.4273 74.4622 27.3306C74.3809 27.4183 74.2964 27.506 74.2151 27.5905H74.2118ZM110.355 8.24212C107.562 14.9223 104.882 21.323 102.075 28.0324C100.323 23.7923 98.6965 19.8511 97.0412 15.8385C100.823 12.3457 105.262 10.0941 110.355 8.23887V8.24212ZM95.1615 44.4825C95.1322 44.5508 95.0444 44.5963 94.9827 44.6515C90.5241 36.0089 89.2851 24.689 94.4851 18.9544C96.316 23.3959 98.1371 27.7919 99.9323 32.201C100.043 32.4706 100.03 32.8638 99.916 33.1367C98.3485 36.9251 96.755 40.7038 95.1615 44.4858V44.4825ZM113.37 36.61C110.098 40.4862 103.666 44.5443 98.4168 45.9739C100.179 41.7663 101.854 37.7504 103.558 33.7475C103.672 33.4811 103.991 33.2374 104.274 33.1172C108.492 31.3594 112.719 29.6212 116.947 27.8862C117.009 27.8602 117.097 27.8992 117.253 27.9154C116.856 31.223 115.5 34.0887 113.37 36.61ZM116.791 24.062C113.207 25.5955 109.594 27.0706 105.653 28.6984C108.355 22.2327 110.944 16.0432 113.532 9.85367C113.672 9.82443 113.809 9.79843 113.949 9.76919C114.885 12.7454 115.89 15.6988 116.729 18.701C117.123 20.1046 117.236 21.5927 117.373 23.0515C117.402 23.3764 117.084 23.9353 116.788 24.062H116.791Z" fill="black"/>
</svg>
