<svg width="109" height="77" viewBox="0 0 109 77" fill="none" xmlns="http://www.w3.org/2000/svg">
<path d="M30.5581 40.7563C30.5581 46.3877 25.9934 50.9498 20.3645 50.9498C14.7357 50.9498 10.171 46.3851 10.171 40.7563C10.171 35.1274 14.7357 30.5627 20.3645 30.5627C25.9934 30.5627 30.5581 35.1274 30.5581 40.7563ZM26.0247 40.7589C26.0247 37.6314 23.4894 35.0935 20.3593 35.0935C17.2293 35.0935 14.6939 37.6288 14.6939 40.7589C14.6939 43.8889 17.2293 46.4243 20.3593 46.4243C23.4894 46.4243 26.0247 43.8889 26.0247 40.7589Z" fill="#285BEA"/>
<path d="M108.739 68.6606C108.155 69.3884 107.975 69.9857 106.918 70.1344C105.729 70.3013 99.9565 70.3404 98.9053 70.1031C97.3924 69.764 97.056 67.5808 97.8985 66.4826C97.9976 66.3522 99.0018 65.6871 99.0722 65.6871H104.276V40.8319H90.3603C89.3352 40.8319 88.284 39.4103 88.3257 38.3931C88.3648 37.4514 89.4343 36.1577 90.3603 36.1577H104.276V32.8659C104.276 27.9309 98.9053 22.5628 93.9729 22.5628H86.3251L86.0069 22.8811V50.4985C86.0069 51.1037 84.7079 52.1914 83.9932 52.0975H44.0434C42.1888 51.8731 41.2628 50.0499 42.3583 48.4901C42.507 48.2762 43.2348 47.6319 43.4121 47.6319H81.5466V4.50246H69.0133V18.8433C69.0133 19.4458 67.3179 20.5648 66.6214 20.3927L58.7233 17.2548C56.9 17.6461 52.4501 20.497 50.8695 20.424C49.9931 20.3822 48.6211 19.2841 48.6211 18.4181V4.50246H36.2991V20.1162C36.2991 20.3066 35.7644 21.3056 35.5609 21.5012C34.0715 22.9358 31.9144 21.8742 31.6431 19.884C30.9311 14.6203 32.1361 7.90117 31.6249 2.48097C31.7397 1.50022 32.1518 0.553378 33.1012 0.133429L83.9984 0.0317027C84.6244 -0.205659 86.0069 0.952459 86.0069 1.42197V18.0999H95.0371C100.014 18.0999 106.412 23.5149 107.842 28.2387L108.739 31.6948V68.6606ZM64.5504 4.50246H53.29V14.4873L58.9241 12.3954L64.5504 14.6986V4.50246Z" fill="#285BEA"/>
<path d="M36.2939 65.6868H42.2436C45.1833 54.4421 62.109 58.2973 59.8136 69.7663C57.9278 79.1852 44.4842 79.3808 42.2228 70.1706L33.2604 70.1054C32.59 70.0324 31.6223 68.663 31.6223 68.1309V64.414L26.0926 71.7383C24.3163 73.2485 22.2139 77.7036 19.4986 76.8533C18.4814 76.5351 13.7863 70.7054 12.842 69.4925C4.56829 58.8581 -5.52351 42.0367 3.61623 29.0809C11.444 17.9823 27.7437 17.3954 36.2861 27.9854C42.1263 35.2236 41.5211 43.68 38.365 51.9329C38.0807 52.6789 36.2939 56.2002 36.2939 56.448V65.6894V65.6868ZM18.617 24.9597C11.6318 25.677 5.80205 31.3372 4.6987 38.2337C3.09716 48.2446 12.0022 61.5917 18.2414 68.9734C18.5805 69.3751 20.0594 71.2583 20.4376 71.1931C26.6299 64.0097 34.0012 54.4343 35.8062 44.9085C37.8981 33.8882 30.1851 23.7703 18.617 24.9571V24.9597ZM55.4837 67.9483C55.4837 65.4443 53.4544 63.4149 50.9504 63.4149C48.4464 63.4149 46.417 65.4443 46.417 67.9483C46.417 70.4523 48.4464 72.4817 50.9504 72.4817C53.4544 72.4817 55.4837 70.4523 55.4837 67.9483Z" fill="#285BEA"/>
<path d="M77.2662 70.1786L63.8488 70.1055C61.5221 69.1352 61.8533 65.9947 64.4356 65.6843L77.1541 65.7C78.3904 62.2074 81.0718 59.4086 84.8957 58.9521C92.5643 58.0366 97.8959 66.4434 93.6129 72.98C89.3065 79.5531 79.2016 77.675 77.2662 70.1812V70.1786ZM90.6107 67.9536C90.6107 65.4496 88.5814 63.4203 86.0773 63.4203C83.5733 63.4203 81.544 65.4496 81.544 67.9536C81.544 70.4577 83.5733 72.487 86.0773 72.487C88.5814 72.487 90.6107 70.4577 90.6107 67.9536Z" fill="#285BEA"/>
</svg>
