<svg width="37" height="37" viewBox="0 0 37 37" fill="none" xmlns="http://www.w3.org/2000/svg">
<path d="M22.163 18.3976C22.1573 20.2703 20.6227 21.792 18.7459 21.7863C16.8739 21.7807 15.3523 20.2461 15.3579 18.3684C15.3636 16.4965 16.8982 14.9748 18.775 14.9805C20.6478 14.9861 22.1694 16.5208 22.163 18.3976ZM18.7629 21.0299C20.2182 21.0291 21.4066 19.8408 21.4074 18.3854C21.4074 16.9293 20.2223 15.7393 18.7677 15.7369C17.3027 15.7344 16.1119 16.9252 16.1143 18.3903C16.1167 19.8448 17.3075 21.0308 18.7637 21.0299H18.7629Z" fill="black"/>
<path d="M19.1383 18.0054C19.5144 18.0054 19.8607 18.0038 20.2069 18.0054C20.4795 18.007 20.6526 18.1583 20.6494 18.388C20.6462 18.6105 20.4771 18.7594 20.2158 18.761C19.7498 18.7634 19.2831 18.7634 18.8171 18.761C18.5299 18.7594 18.3843 18.6162 18.3827 18.3322C18.3803 17.8598 18.3803 17.3873 18.3827 16.9141C18.3843 16.6601 18.5453 16.4894 18.7685 16.4942C18.9845 16.4991 19.135 16.6649 19.1374 16.9117C19.1407 17.2692 19.1383 17.6268 19.1383 18.0054Z" fill="black"/>
<path d="M25.9441 14.9925C25.9441 13.9166 25.9441 12.8399 25.9425 11.7639C25.9425 11.645 25.911 11.5504 25.8519 11.4816C25.8341 11.4598 25.8131 11.4404 25.7888 11.425C25.7225 11.3789 25.6351 11.3538 25.5308 11.3522C25.5105 11.3522 25.4903 11.3522 25.4701 11.3522C25.458 11.3522 25.4458 11.3514 25.4329 11.3514C25.2444 11.3498 25.0559 11.353 24.8682 11.3514C24.8439 11.3514 24.8205 11.3514 24.7962 11.3514C24.7768 11.3514 24.7574 11.3514 24.7388 11.3506C24.327 11.3425 23.9428 11.2858 23.5876 11.1807C23.1759 11.0512 22.807 10.8668 22.4809 10.6265C22.0611 10.3102 21.7035 9.88956 21.4099 9.36373C21.2982 9.16392 21.1542 9.07979 20.9261 9.0806C20.9002 9.07898 20.8743 9.07817 20.8468 9.07817C20.1511 9.08383 19.4554 9.08626 18.7597 9.08626C18.064 9.08626 17.3683 9.08464 16.6726 9.07817C16.383 9.07574 16.2139 9.17444 16.0731 9.42926C15.5538 10.3701 14.7634 10.9712 13.7206 11.2422C13.1811 11.3821 12.6326 11.3481 12.0857 11.3522C11.6958 11.3554 11.5777 11.4711 11.5777 11.8594C11.5777 14.0962 11.5672 16.333 11.5842 18.5698C11.589 19.166 11.6262 19.7703 11.7338 20.3544C12.3567 23.7383 14.2052 26.2348 17.251 27.8349C17.6991 28.0703 18.1813 28.241 18.6481 28.4416H18.8746C18.8851 28.4368 18.8948 28.4319 18.9053 28.4279C18.9854 28.3939 19.0655 28.3607 19.1456 28.3276C19.3519 28.2491 19.5541 28.1658 19.7515 28.0784C19.927 28.0032 20.1002 27.9239 20.2692 27.8349C20.2822 27.8284 20.2943 27.8211 20.3064 27.8147C21.4034 27.2573 22.3515 26.5519 23.15 25.6968C24.0552 24.7487 24.7477 23.6436 25.2258 22.3816C25.2703 22.2716 25.3131 22.1616 25.3552 22.0492C25.5033 21.6495 25.6036 21.2305 25.7079 20.8163C25.7209 20.7661 25.7249 20.7184 25.7233 20.6731C25.7451 20.5679 25.7662 20.4612 25.7864 20.3544C25.894 19.7695 25.9312 19.1652 25.9361 18.5698C25.9393 18.1427 25.9409 17.7163 25.9425 17.2892C25.9433 17.2754 25.9441 17.2617 25.9441 17.2471C25.9441 16.9955 25.9441 16.7431 25.9441 16.4916C25.945 15.9924 25.945 15.4925 25.9441 14.9933V14.9925ZM24.6733 21.6892C24.6692 21.7005 24.666 21.711 24.6619 21.7223C23.8845 23.9899 22.4154 25.7421 20.266 26.9831C20.2369 27 20.2069 27.0162 20.177 27.0324C19.9829 27.1368 19.7838 27.2338 19.58 27.3325C19.4384 27.3997 19.2944 27.4676 19.148 27.5396V23.2877C20.228 23.1833 21.1761 22.795 21.9721 22.0985C22.201 21.9011 22.409 21.6843 22.5974 21.4481C23.2017 20.7022 23.5528 19.8431 23.6483 18.8804C23.6483 18.8788 23.6483 18.8772 23.6483 18.8756C23.658 18.7777 23.6653 18.6782 23.6693 18.5779C23.7154 17.5003 23.4331 16.5053 22.8167 15.6187C21.9535 14.3753 20.7603 13.6796 19.2807 13.4919C19.2362 13.4862 19.1925 13.4806 19.1472 13.4757V9.8386C19.512 9.8386 19.8712 9.84264 20.2288 9.84022C20.3485 9.83941 20.4682 9.83779 20.588 9.83455C20.7473 9.83051 20.8282 9.88795 20.9132 10.019C21.6922 11.213 22.7892 11.9079 24.2097 12.073C24.3157 12.0851 24.4217 12.0932 24.5284 12.0989C24.632 12.1045 24.7372 12.1078 24.8431 12.1118C24.9556 12.115 25.0688 12.1191 25.1837 12.1247C25.1837 12.1765 25.1837 12.2251 25.1837 12.2736C25.1837 13.3414 25.1861 14.4093 25.1869 15.4763C25.1869 15.4828 25.1869 15.4892 25.1869 15.4957C25.1869 16.5644 25.1853 17.6322 25.1764 18.7008C25.1716 19.2647 25.1238 19.8374 25.0146 20.39C24.9289 20.8211 24.8205 21.2361 24.6902 21.6366C24.6846 21.6544 24.6789 21.673 24.6724 21.6908L24.6733 21.6892ZM18.3746 27.5469C17.9176 27.3147 17.4726 27.1222 17.0609 26.8738C14.5903 25.3837 13.0638 23.2173 12.5023 20.3884C12.3923 19.8358 12.3454 19.2631 12.3405 18.6992C12.3219 16.5571 12.3324 14.4141 12.3324 12.272C12.3324 12.2234 12.3324 12.1741 12.3324 12.1231C12.669 12.1069 12.9901 12.1094 13.3064 12.0722C14.7262 11.9071 15.824 11.2122 16.603 10.0182C16.6887 9.88714 16.7696 9.8297 16.9298 9.83375C17.4071 9.84588 17.8844 9.83779 18.3722 9.83779V13.4749C16.84 13.6391 15.6031 14.3316 14.7132 15.6025C14.0903 16.4932 13.8096 17.4931 13.8493 18.5779C13.8784 19.3852 14.0992 20.1408 14.5053 20.8398C14.9114 21.5387 15.4575 22.1058 16.1403 22.5386C16.8214 22.9714 17.5697 23.2125 18.3746 23.2853V27.5461V27.5469ZM18.7492 22.5418C16.459 22.537 14.5968 20.6642 14.6016 18.3716C14.6065 16.0854 16.4719 14.2256 18.7589 14.224C21.0458 14.2256 22.9113 16.0854 22.9162 18.3716C22.9202 20.2678 21.6469 21.8769 19.9101 22.3792C19.9076 22.3792 19.9052 22.3808 19.902 22.3816C19.8745 22.3897 19.847 22.397 19.8194 22.4043C19.813 22.4059 19.8073 22.4075 19.8008 22.4092C19.7766 22.4156 19.7515 22.4213 19.7264 22.4278C19.7175 22.4302 19.7078 22.4326 19.6989 22.4342C19.6771 22.4391 19.6544 22.4439 19.6326 22.4488C19.6204 22.4512 19.6083 22.4545 19.597 22.4569C19.5768 22.4609 19.5573 22.465 19.5371 22.4682C19.5225 22.4706 19.5088 22.4739 19.4942 22.4763C19.4756 22.4795 19.4578 22.4828 19.4392 22.4852C19.423 22.4876 19.4069 22.4909 19.3907 22.4933C19.3737 22.4957 19.3567 22.4981 19.3397 22.5006C19.3219 22.503 19.3049 22.5054 19.2871 22.5078C19.271 22.5103 19.2548 22.5119 19.2386 22.5135C19.22 22.5159 19.2014 22.5176 19.1828 22.52C19.1674 22.5216 19.1512 22.5232 19.1351 22.524C19.1156 22.5256 19.0962 22.5273 19.0776 22.5289C19.0623 22.5297 19.0461 22.5313 19.0299 22.5321C19.0105 22.5337 18.9911 22.5345 18.9716 22.5354C18.9555 22.5362 18.9393 22.537 18.9231 22.537C18.9037 22.537 18.8851 22.5386 18.8657 22.5394C18.8487 22.5394 18.8317 22.5394 18.8147 22.5394C18.7929 22.5394 18.771 22.5394 18.75 22.5394L18.7492 22.5418Z" fill="black"/>
<path d="M18.7585 36.5169C28.5662 36.5169 36.5169 28.5662 36.5169 18.7585C36.5169 8.95074 28.5662 1 18.7585 1C8.95073 1 1 8.95074 1 18.7585C1 28.5662 8.95073 36.5169 18.7585 36.5169Z" stroke="black" stroke-width="0.561068" stroke-miterlimit="10"/>
</svg>
