<svg width="65" height="65" viewBox="0 0 65 65" fill="none" xmlns="http://www.w3.org/2000/svg">
<path d="M38.7184 32.0078C38.7083 35.3457 35.9731 38.0578 32.628 38.0477C29.2916 38.0376 26.5795 35.3024 26.5896 31.9559C26.5997 28.6195 29.3349 25.9074 32.6799 25.9175C36.0178 25.9276 38.7299 28.6628 38.7184 32.0078ZM32.6583 36.6996C35.2522 36.6981 37.3702 34.5801 37.3717 31.9862C37.3717 29.3909 35.2594 27.2699 32.667 27.2656C30.0558 27.2613 27.9334 29.3837 27.9377 31.9948C27.9421 34.5873 30.0645 36.701 32.6598 36.6996H32.6583Z" fill="black"/>
<path d="M33.3275 31.3088C33.9979 31.3088 34.615 31.3059 35.2321 31.3088C35.718 31.3116 36.0266 31.5813 36.0208 31.9908C36.015 32.3873 35.7137 32.6526 35.248 32.6554C34.4175 32.6598 33.5855 32.6598 32.755 32.6554C32.2432 32.6526 31.9837 32.3974 31.9808 31.8913C31.9765 31.0492 31.9765 30.2072 31.9808 29.3637C31.9837 28.911 32.2706 28.6068 32.6685 28.6154C33.0535 28.6241 33.3217 28.9196 33.326 29.3594C33.3318 29.9967 33.3275 30.634 33.3275 31.3088Z" fill="black"/>
<path d="M45.4575 25.9378C45.4575 24.0202 45.4575 22.1011 45.4546 20.1835C45.4546 19.9715 45.3984 19.8028 45.2931 19.6803C45.2614 19.6413 45.2239 19.6067 45.1807 19.5793C45.0624 19.4971 44.9067 19.4524 44.7207 19.4496C44.6847 19.4496 44.6486 19.4496 44.6126 19.4496C44.591 19.4496 44.5693 19.4481 44.5463 19.4481C44.2103 19.4452 43.8744 19.451 43.5399 19.4481C43.4966 19.4481 43.4548 19.4481 43.4115 19.4481C43.3769 19.4481 43.3423 19.4481 43.3092 19.4467C42.5753 19.4323 41.8904 19.3313 41.2574 19.1439C40.5235 18.9132 39.8661 18.5845 39.285 18.1562C38.5367 17.5925 37.8994 16.8427 37.376 15.9055C37.177 15.5494 36.9204 15.3994 36.5138 15.4009C36.4676 15.398 36.4215 15.3966 36.3725 15.3966C35.1325 15.4067 33.8925 15.411 32.6525 15.411C31.4126 15.411 30.1726 15.4081 28.9326 15.3966C28.4164 15.3922 28.1151 15.5681 27.8642 16.0223C26.9386 17.6992 25.5299 18.7705 23.6714 19.2535C22.7097 19.5029 21.7321 19.4424 20.7574 19.4496C20.0624 19.4553 19.8519 19.6615 19.8519 20.3536C19.8519 24.3403 19.8332 28.327 19.8635 32.3136C19.8721 33.3763 19.9384 34.4533 20.1302 35.4943C21.2404 41.5255 24.535 45.975 29.9635 48.827C30.7623 49.2466 31.6216 49.5508 32.4536 49.9084H32.8573C32.876 49.8997 32.8933 49.8911 32.9121 49.8839C33.0548 49.8233 33.1976 49.7642 33.3403 49.7051C33.708 49.5652 34.0684 49.4167 34.4202 49.261C34.7331 49.1269 35.0417 48.9856 35.343 48.827C35.3661 48.8154 35.3877 48.8025 35.4093 48.7909C37.3645 47.7975 39.0543 46.5402 40.4774 45.0162C42.0908 43.3264 43.325 41.3568 44.1772 39.1076C44.2565 38.9115 44.3329 38.7154 44.4078 38.515C44.6717 37.8027 44.8505 37.0558 45.0365 36.3176C45.0596 36.2282 45.0668 36.1431 45.0639 36.0624C45.1028 35.875 45.1403 35.6846 45.1763 35.4943C45.3681 34.4519 45.4344 33.3748 45.4431 32.3136C45.4489 31.5523 45.4517 30.7925 45.4546 30.0312C45.4561 30.0067 45.4575 29.9822 45.4575 29.9562C45.4575 29.5078 45.4575 29.058 45.4575 28.6096C45.4589 27.7199 45.4589 26.8289 45.4575 25.9393V25.9378ZM43.1924 37.8734C43.1852 37.8935 43.1794 37.9123 43.1722 37.9325C41.7866 41.9739 39.1682 45.097 35.3372 47.3087C35.2853 47.339 35.232 47.3678 35.1786 47.3967C34.8326 47.5827 34.4779 47.7557 34.1146 47.9316C33.8622 48.0513 33.6056 48.1724 33.3446 48.3007V40.7224C35.2695 40.5364 36.9593 39.8443 38.3781 38.6029C38.7861 38.2511 39.1567 37.8647 39.4926 37.4437C40.5697 36.1143 41.1954 34.5831 41.3656 32.8673C41.3656 32.8644 41.3656 32.8615 41.3656 32.8586C41.3829 32.6842 41.3959 32.5068 41.4031 32.328C41.4852 30.4075 40.982 28.6341 39.8834 27.0538C38.3449 24.8377 36.2182 23.5977 33.5811 23.2632C33.5018 23.2531 33.4239 23.243 33.3432 23.2344V16.7519C33.9935 16.7519 34.6336 16.7591 35.2709 16.7548C35.4843 16.7533 35.6977 16.7504 35.9111 16.7447C36.1952 16.7375 36.3393 16.8398 36.4907 17.0734C37.8792 19.2016 39.8343 20.4401 42.3662 20.7342C42.5551 20.7559 42.744 20.7703 42.9343 20.7804C43.1188 20.7905 43.3063 20.7962 43.4952 20.8035C43.6956 20.8092 43.8974 20.8164 44.1022 20.8265C44.1022 20.9188 44.1022 21.0053 44.1022 21.0918C44.1022 22.995 44.1065 24.8983 44.1079 26.8C44.1079 26.8116 44.1079 26.8231 44.1079 26.8347C44.1079 28.7393 44.1051 30.6425 44.0892 32.5472C44.0806 33.5522 43.9955 34.573 43.8008 35.5578C43.648 36.3263 43.4548 37.0659 43.2227 37.7796C43.2126 37.8114 43.2025 37.8445 43.1909 37.8762L43.1924 37.8734ZM31.9662 48.3137C31.1516 47.8999 30.3586 47.5567 29.6247 47.1141C25.2213 44.4582 22.5006 40.597 21.4999 35.5549C21.3039 34.5701 21.2202 33.5493 21.2116 32.5443C21.1784 28.7263 21.1972 24.9069 21.1972 21.0889C21.1972 21.0024 21.1972 20.9145 21.1972 20.8236C21.797 20.7948 22.3694 20.7991 22.9331 20.7328C25.4636 20.4387 27.4201 19.2001 28.8086 17.072C28.9615 16.8384 29.1056 16.736 29.3911 16.7432C30.2418 16.7649 31.0925 16.7504 31.9619 16.7504V23.2329C29.2311 23.5256 27.0265 24.7598 25.4405 27.025C24.3303 28.6124 23.83 30.3945 23.9006 32.328C23.9525 33.767 24.3461 35.1137 25.0699 36.3594C25.7937 37.6052 26.767 38.6159 27.9839 39.3873C29.1979 40.1587 30.5316 40.5883 31.9662 40.7181V48.3122V48.3137ZM32.6338 39.393C28.552 39.3844 25.2329 36.0465 25.2415 31.9604C25.2502 27.8857 28.575 24.571 32.6511 24.5681C36.7272 24.571 40.052 27.8857 40.0607 31.9604C40.0679 35.34 37.7985 38.2079 34.7028 39.1032C34.6985 39.1032 34.6942 39.1061 34.6884 39.1076C34.6394 39.122 34.5904 39.135 34.5414 39.1479C34.5298 39.1508 34.5197 39.1537 34.5082 39.1566C34.4649 39.1681 34.4202 39.1782 34.3755 39.1898C34.3597 39.1941 34.3424 39.1984 34.3265 39.2013C34.2876 39.2099 34.2472 39.2186 34.2083 39.2272C34.1867 39.2316 34.165 39.2373 34.1449 39.2417C34.1088 39.2489 34.0742 39.2561 34.0381 39.2618C34.0122 39.2662 33.9877 39.2719 33.9617 39.2763C33.9286 39.282 33.8969 39.2878 33.8637 39.2921C33.8349 39.2964 33.806 39.3022 33.7772 39.3065C33.7469 39.3109 33.7166 39.3152 33.6863 39.3195C33.6546 39.3238 33.6243 39.3282 33.5926 39.3325C33.5638 39.3368 33.535 39.3397 33.5061 39.3426C33.473 39.3469 33.4398 39.3498 33.4066 39.3541C33.3792 39.357 33.3504 39.3599 33.3216 39.3613C33.287 39.3642 33.2524 39.3671 33.2192 39.37C33.1918 39.3714 33.163 39.3743 33.1341 39.3757C33.0995 39.3786 33.0649 39.3801 33.0303 39.3815C33.0015 39.383 32.9726 39.3844 32.9438 39.3844C32.9092 39.3844 32.876 39.3873 32.8414 39.3887C32.8112 39.3887 32.7809 39.3887 32.7506 39.3887C32.7117 39.3887 32.6727 39.3887 32.6352 39.3887L32.6338 39.393Z" fill="black"/>
<path d="M32.6512 64.3024C50.1317 64.3024 64.3024 50.1317 64.3024 32.6512C64.3024 15.1707 50.1317 1 32.6512 1C15.1707 1 1 15.1707 1 32.6512C1 50.1317 15.1707 64.3024 32.6512 64.3024Z" stroke="black" stroke-miterlimit="10"/>
</svg>
