<svg width="37" height="37" viewBox="0 0 37 37" fill="none" xmlns="http://www.w3.org/2000/svg">
<path d="M11.3848 14.2101C11.0127 13.8461 10.6551 13.4998 10.3016 13.1496C10.0314 12.8818 10.0298 12.7515 10.2894 12.4911C11.0248 11.7533 11.7618 11.0171 12.4987 10.281C12.7576 10.0229 12.8943 10.0253 13.1589 10.2874C13.4744 10.5997 13.7818 10.92 14.1062 11.2234C14.1636 11.2776 14.3084 11.3108 14.3699 11.2768C15.1141 10.8578 15.8964 10.5358 16.7434 10.3255C16.7434 9.81176 16.7426 9.30535 16.7434 8.79893C16.7442 8.43085 16.8421 8.33297 17.2094 8.33297C18.2513 8.33216 19.2925 8.33135 20.3344 8.33297C20.6879 8.33297 20.785 8.42923 20.7882 8.78437C20.7923 9.22849 20.7947 9.67181 20.7858 10.1159C20.7826 10.2664 20.8319 10.3287 20.9775 10.3821C21.7558 10.6676 22.5275 10.9694 23.3753 11.2938C23.6423 11.026 23.9845 10.6822 24.3267 10.3384C24.6616 10.0027 24.757 10.0035 25.1 10.3457C25.8111 11.0568 26.523 11.767 27.2325 12.4789C27.5051 12.7515 27.5027 12.8786 27.2268 13.1568C26.8765 13.5096 26.5246 13.8606 26.2124 14.1737C26.5675 15.028 26.9097 15.8499 27.2689 16.7139C27.7041 16.7139 28.2008 16.7123 28.6975 16.7139C29.0963 16.7155 29.1926 16.8126 29.1934 17.2106C29.1942 18.2525 29.195 19.2937 29.1934 20.3356C29.1934 20.694 29.1044 20.7781 28.7428 20.7789C28.2534 20.7806 27.7648 20.7806 27.2753 20.7822C27.2576 20.7822 27.2406 20.7895 27.2543 20.7862C27.0052 21.4132 26.7625 22.0223 26.5198 22.6323C26.5101 22.6574 26.4939 22.68 26.4826 22.7043C26.3871 22.9049 26.1921 23.1241 26.2245 23.3013C26.2585 23.4866 26.5101 23.6322 26.6686 23.7932C26.8725 23.9994 27.0812 24.2009 27.2818 24.4096C27.4841 24.6199 27.4922 24.772 27.294 24.9718C26.5287 25.7436 25.7602 26.5129 24.9884 27.2782C24.7878 27.4772 24.6292 27.4731 24.4254 27.2709C24.0524 26.902 23.686 26.5267 23.3066 26.1448C22.551 26.5946 21.7671 26.9336 20.9322 27.156C20.8683 27.173 20.7988 27.3114 20.7963 27.3955C20.7826 27.8388 20.7923 28.2829 20.789 28.727C20.7858 29.0822 20.6887 29.1833 20.3376 29.1849C19.2868 29.1882 18.2359 29.1882 17.1851 29.1849C16.8526 29.1833 16.7466 29.0717 16.745 28.7424C16.7426 28.2894 16.7515 27.8364 16.7377 27.3842C16.7353 27.3033 16.6593 27.1722 16.5937 27.1544C15.7678 26.9319 14.9896 26.5995 14.2364 26.1464C13.8748 26.5097 13.5188 26.8688 13.1605 27.2248C12.8919 27.4918 12.7649 27.4934 12.5012 27.2313C11.7634 26.4959 11.0272 25.7589 10.2919 25.0212C10.0298 24.7583 10.0322 24.6337 10.304 24.3635C10.6575 24.0124 11.0135 23.6653 11.3621 23.3223C11.1413 22.8604 10.918 22.4284 10.7263 21.9819C10.5985 21.6842 10.4885 21.3727 10.4213 21.0564C10.3687 20.8113 10.2498 20.7684 10.0306 20.7757C9.60506 20.7903 9.17954 20.7814 8.75322 20.7797C8.445 20.7781 8.3277 20.6665 8.32689 20.3542C8.32365 19.2856 8.32365 18.2161 8.32689 17.1475C8.3277 16.8498 8.45956 16.7212 8.76292 16.7163C9.22485 16.7098 9.68677 16.722 10.1487 16.7074C10.228 16.705 10.3558 16.6249 10.3752 16.5569C10.6009 15.7407 10.9293 14.9705 11.3864 14.2101H11.3848ZM28.5236 17.4047C28.018 17.4047 27.531 17.3983 27.044 17.4072C26.7989 17.4112 26.6346 17.3141 26.591 17.0747C26.4138 16.1177 26.0352 15.244 25.5078 14.4318C25.371 14.2206 25.3921 14.0564 25.5709 13.8809C25.9268 13.533 26.2706 13.173 26.6144 12.8235C25.9753 12.1909 25.333 11.5559 24.681 10.9103C24.355 11.2355 24.0079 11.5785 23.6649 11.9248C23.4287 12.1634 23.347 12.1715 23.0566 11.9879C22.2614 11.4855 21.4119 11.1166 20.4849 10.937C20.2333 10.8885 20.1192 10.7485 20.1265 10.4824C20.1394 9.98973 20.1305 9.49626 20.1305 9.00036H17.3954C17.3954 9.51244 17.3873 10.0091 17.3987 10.505C17.4051 10.7615 17.2919 10.8893 17.0516 10.937C16.1261 11.1191 15.2743 11.4839 14.4807 11.9879C14.1943 12.1699 14.1053 12.1618 13.8724 11.924C13.531 11.5769 13.1872 11.2323 12.8717 10.9136C12.2124 11.5688 11.5733 12.2039 10.9318 12.8413C11.261 13.1754 11.5975 13.5306 11.9503 13.8679C12.1387 14.0483 12.1735 14.2142 12.0247 14.4374C11.5021 15.2213 11.1567 16.0821 10.9463 16.9986C10.8646 17.3546 10.8015 17.4047 10.4326 17.4031C9.96505 17.4015 9.49828 17.4031 9.03474 17.4031V20.1277C9.55409 20.1277 10.0508 20.1318 10.5483 20.1261C10.7756 20.1229 10.8881 20.2167 10.9358 20.4456C11.1316 21.3849 11.4859 22.2626 12.0166 23.0635C12.1727 23.2989 12.1396 23.4671 11.943 23.6548C11.5911 23.9905 11.2554 24.3433 10.952 24.649C11.5951 25.3043 12.2253 25.9466 12.8555 26.5881C13.1993 26.2492 13.5569 25.9029 13.9055 25.5486C14.073 25.3787 14.2315 25.3585 14.433 25.4928C15.2185 26.0122 16.0768 26.3641 16.9934 26.5744C17.3639 26.6593 17.3962 26.7006 17.3962 27.0865C17.3962 27.5621 17.3962 28.0378 17.3962 28.5159H20.1346C20.1346 28.0176 20.1403 27.5395 20.133 27.0606C20.1281 26.7515 20.1945 26.6561 20.4873 26.5898C21.4128 26.3802 22.2848 26.0372 23.0768 25.509C23.3122 25.352 23.4789 25.3884 23.6657 25.5874C23.999 25.9426 24.3509 26.2799 24.668 26.597C25.3225 25.9434 25.96 25.3067 26.6063 24.6612C26.2811 24.3352 25.9381 23.9881 25.5911 23.6451C25.3686 23.4251 25.3589 23.3264 25.5296 23.057C26.0384 22.2553 26.413 21.3994 26.5869 20.461C26.629 20.2345 26.7511 20.1204 26.9995 20.1269C27.5035 20.139 28.0083 20.1301 28.5252 20.1301V17.4072L28.5236 17.4047Z" fill="black"/>
<path d="M24.4415 18.7493C24.4488 21.8711 21.9086 24.417 18.7795 24.4234C15.6488 24.4307 13.1063 21.9019 13.0982 18.7736C13.0901 15.6308 15.6343 13.076 18.7682 13.0801C21.8949 13.0833 24.4342 15.6211 24.4415 18.7485V18.7493ZM23.7903 18.7582C23.7919 16.0029 21.5495 13.7507 18.7836 13.7321C16.0234 13.7135 13.7518 15.9786 13.7494 18.7518C13.7478 21.5168 15.9862 23.7641 18.7504 23.7722C21.5252 23.7803 23.7879 21.5281 23.7903 18.7582Z" fill="black"/>
<path d="M17.9488 20.0684C18.27 19.7416 18.5652 19.4374 18.8646 19.1373C19.5352 18.4642 20.2074 17.7928 20.8797 17.1214C20.9242 17.0769 20.9671 17.0283 21.0164 16.9895C21.1628 16.8746 21.3214 16.8609 21.4589 16.9919C21.607 17.1327 21.6045 17.3001 21.467 17.4498C21.3012 17.6294 21.1248 17.7985 20.9517 17.9716C20.0626 18.8614 19.1736 19.7513 18.2829 20.6396C18.003 20.9195 17.8833 20.9195 17.6058 20.6428C17.1188 20.1574 16.6326 19.6712 16.1472 19.1834C15.945 18.9796 15.9199 18.7911 16.0696 18.6438C16.2192 18.4974 16.4045 18.5233 16.61 18.7272C17.0452 19.1608 17.478 19.5976 17.9488 20.07V20.0684Z" fill="black"/>
<path d="M18.7585 36.5169C28.5662 36.5169 36.5169 28.5662 36.5169 18.7585C36.5169 8.95074 28.5662 1 18.7585 1C8.95074 1 1 8.95074 1 18.7585C1 28.5662 8.95074 36.5169 18.7585 36.5169Z" stroke="black" stroke-width="0.561068" stroke-miterlimit="10"/>
</svg>
