<svg width="65" height="65" viewBox="0 0 65 65" fill="none" xmlns="http://www.w3.org/2000/svg">
<path d="M19.5089 24.542C18.8457 23.8932 18.2084 23.2761 17.5783 22.6518C17.0967 22.1745 17.0938 21.9424 17.5567 21.4781C18.8673 20.1632 20.1808 18.8511 21.4943 17.539C21.9557 17.0791 22.1994 17.0834 22.6709 17.5506C23.2332 18.1071 23.7811 18.6781 24.3593 19.2188C24.4616 19.3154 24.7197 19.3745 24.8293 19.3139C26.1558 18.5671 27.55 17.9932 29.0596 17.6183C29.0596 16.7028 29.0582 15.8002 29.0596 14.8976C29.0611 14.2416 29.2355 14.0671 29.8901 14.0671C31.7472 14.0657 33.6029 14.0642 35.4599 14.0671C36.09 14.0671 36.2631 14.2387 36.2688 14.8716C36.276 15.6632 36.2804 16.4533 36.2645 17.2449C36.2587 17.5131 36.3467 17.6241 36.6062 17.7193C37.9933 18.2282 39.3688 18.766 40.8798 19.3442C41.3556 18.867 41.9655 18.2542 42.5754 17.6414C43.1723 17.043 43.3425 17.0445 43.9538 17.6544C45.2212 18.9218 46.49 20.1877 47.7545 21.4565C48.2404 21.9424 48.2361 22.1688 47.7444 22.6648C47.1201 23.2934 46.4929 23.9192 45.9363 24.4772C46.5693 25.9997 47.1792 27.4646 47.8194 29.0045C48.5951 29.0045 49.4804 29.0016 50.3657 29.0045C51.0765 29.0074 51.2481 29.1804 51.2495 29.8898C51.2509 31.7469 51.2524 33.6025 51.2495 35.4596C51.2495 36.0984 51.0909 36.2483 50.4464 36.2498C49.5741 36.2526 48.7032 36.2526 47.8309 36.2555C47.7992 36.2555 47.7689 36.2685 47.7934 36.2627C47.3493 37.3801 46.9168 38.4659 46.4842 39.553C46.4669 39.5977 46.4381 39.6381 46.4179 39.6813C46.2478 40.0389 45.9003 40.4296 45.958 40.7454C46.0185 41.0756 46.4669 41.3351 46.7495 41.622C47.1129 41.9897 47.4849 42.3487 47.8424 42.7207C48.2029 43.0956 48.2173 43.3667 47.8641 43.7228C46.5001 45.0983 45.1304 46.4695 43.7548 47.8335C43.3973 48.1882 43.1147 48.181 42.7513 47.8205C42.0866 47.163 41.4335 46.494 40.7573 45.8135C39.4106 46.6151 38.0134 47.2192 36.5255 47.6157C36.4116 47.646 36.2876 47.8926 36.2832 48.0425C36.2587 48.8327 36.276 49.6242 36.2703 50.4158C36.2645 51.0488 36.0915 51.229 35.4657 51.2319C33.5928 51.2376 31.7198 51.2376 29.8469 51.2319C29.2543 51.229 29.0654 51.03 29.0625 50.4432C29.0582 49.6358 29.0741 48.8283 29.0495 48.0223C29.0452 47.8782 28.9097 47.6446 28.7929 47.6129C27.3208 47.2164 25.9337 46.6238 24.5914 45.8163C23.9469 46.4637 23.3125 47.1039 22.6737 47.7383C22.1951 48.2141 21.9687 48.217 21.4986 47.7498C20.1837 46.4392 18.8716 45.1257 17.561 43.8107C17.0938 43.3421 17.0982 43.1201 17.5826 42.6385C18.2127 42.0128 18.8471 41.3942 19.4685 40.7829C19.0749 39.9596 18.677 39.1897 18.3353 38.3938C18.1075 37.8632 17.9114 37.3081 17.7917 36.7443C17.698 36.3074 17.486 36.231 17.0953 36.244C16.3369 36.2699 15.5785 36.2541 14.8186 36.2512C14.2693 36.2483 14.0602 36.0493 14.0588 35.4928C14.053 33.5881 14.053 31.682 14.0588 29.7773C14.0602 29.2467 14.2952 29.0175 14.8359 29.0088C15.6592 28.9973 16.4825 29.0189 17.3058 28.993C17.4471 28.9887 17.6749 28.8459 17.7095 28.7248C18.1118 27.27 18.6972 25.8974 19.5118 24.542H19.5089ZM50.0557 30.2358C49.1545 30.2358 48.2865 30.2243 47.4185 30.2402C46.9817 30.2474 46.689 30.0744 46.6111 29.6476C46.2954 27.9419 45.6206 26.3847 44.6805 24.9371C44.4368 24.5608 44.4743 24.2681 44.793 23.9552C45.4274 23.3352 46.0401 22.6936 46.6529 22.0707C45.5139 20.9432 44.3691 19.8114 43.2069 18.6608C42.6259 19.2404 42.0073 19.8517 41.396 20.4688C40.975 20.8942 40.8294 20.9086 40.3117 20.5813C38.8944 19.6859 37.3805 19.0285 35.7281 18.7084C35.2797 18.6219 35.0764 18.3724 35.0894 17.8981C35.1125 17.02 35.0966 16.1405 35.0966 15.2566H30.2218C30.2218 16.1693 30.2073 17.0546 30.2275 17.9384C30.2391 18.3955 30.0372 18.6233 29.609 18.7084C27.9595 19.0328 26.4413 19.683 25.0268 20.5813C24.5164 20.9057 24.3578 20.8913 23.9426 20.4674C23.3341 19.8489 22.7213 19.2346 22.159 18.6666C20.9839 19.8344 19.8449 20.9663 18.7015 22.1025C19.2883 22.6979 19.8881 23.3309 20.5168 23.9321C20.8527 24.2537 20.9147 24.5492 20.6494 24.9472C19.718 26.3443 19.1023 27.8784 18.7274 29.512C18.5818 30.1465 18.4694 30.2359 17.8119 30.233C16.9785 30.2301 16.1465 30.233 15.3204 30.233V35.0891C16.246 35.0891 17.1313 35.0963 18.0181 35.0862C18.4232 35.0804 18.6236 35.2477 18.7087 35.6557C19.0576 37.3297 19.6891 38.8941 20.635 40.3215C20.9133 40.7411 20.8541 41.041 20.5038 41.3755C19.8766 41.9738 19.2782 42.6025 18.7375 43.1475C19.8838 44.3154 21.007 45.4602 22.1302 46.6036C22.7429 45.9995 23.3802 45.3823 24.0017 44.7508C24.3001 44.448 24.5827 44.412 24.9417 44.6513C26.3418 45.577 27.8716 46.2042 29.5052 46.5791C30.1655 46.7305 30.2232 46.804 30.2232 47.4918C30.2232 48.3396 30.2232 49.1874 30.2232 50.0395H35.1038C35.1038 49.1513 35.1139 48.2992 35.1009 47.4456C35.0923 46.8948 35.2105 46.7247 35.7325 46.6065C37.3819 46.233 38.9362 45.6217 40.3478 44.6802C40.7674 44.4005 41.0644 44.4653 41.3974 44.82C41.9915 45.453 42.6187 46.0542 43.1839 46.6194C44.3503 45.4544 45.4865 44.3197 46.6385 43.1691C46.0589 42.5881 45.4476 41.9695 44.829 41.3582C44.4325 40.966 44.4152 40.7901 44.7194 40.31C45.6263 38.8811 46.2939 37.3556 46.6039 35.6831C46.6789 35.2794 46.8966 35.0761 47.3392 35.0876C48.2375 35.1093 49.1372 35.0934 50.0585 35.0934V30.2402L50.0557 30.2358Z" fill="black"/>
<path d="M42.7802 32.6352C42.7932 38.1992 38.2658 42.7367 32.6888 42.7482C27.1089 42.7612 22.5772 38.254 22.5628 32.6784C22.5484 27.0769 27.0829 22.5236 32.6686 22.5308C38.2413 22.5365 42.7672 27.0596 42.7802 32.6337V32.6352ZM41.6195 32.651C41.6224 27.7401 37.6256 23.7261 32.696 23.6929C27.7765 23.6597 23.7278 27.6969 23.7235 32.6395C23.7206 37.5677 27.7101 41.5731 32.6369 41.5875C37.5824 41.6019 41.6152 37.5879 41.6195 32.651Z" fill="black"/>
<path d="M31.2079 34.9854C31.7803 34.4029 32.3066 33.8607 32.8401 33.3258C34.0353 32.1262 35.2335 30.9295 36.4317 29.7328C36.511 29.6535 36.5874 29.567 36.6753 29.4977C36.9363 29.293 37.2189 29.2685 37.464 29.5021C37.7279 29.7529 37.7235 30.0514 37.4784 30.3181C37.1829 30.6382 36.8685 30.9396 36.56 31.2481C34.9754 32.8342 33.3908 34.4202 31.8034 36.0033C31.3045 36.5022 31.0911 36.5022 30.5966 36.0091C29.7286 35.144 28.862 34.2774 27.9969 33.408C27.6365 33.0447 27.5918 32.7087 27.8585 32.4463C28.1252 32.1853 28.4554 32.2315 28.8217 32.5948C29.5974 33.3676 30.3687 34.1462 31.2079 34.9883V34.9854Z" fill="black"/>
<path d="M32.6512 64.3024C50.1317 64.3024 64.3024 50.1317 64.3024 32.6512C64.3024 15.1707 50.1317 1 32.6512 1C15.1707 1 1 15.1707 1 32.6512C1 50.1317 15.1707 64.3024 32.6512 64.3024Z" stroke="black" stroke-miterlimit="10"/>
</svg>
