<svg width="118" height="118" viewBox="0 0 118 118" fill="none" xmlns="http://www.w3.org/2000/svg">
<path d="M23.2694 77.6934C27.2614 75.727 30.5231 73.1333 32.4645 69.11C32.8516 68.311 32.8203 67.7866 32.193 67.0844C27.9075 62.2621 24.3806 56.9622 22.7794 50.6262C20.7225 42.5016 21.8399 34.8827 27.2271 28.2657C34.175 19.7323 45.5612 18.7679 54.6377 25.8343C56.3793 27.1889 57.9337 28.7807 59.5411 30.2321C61.7384 28.2907 63.992 26.2994 66.2549 24.2987C65.228 23.3311 64.0825 22.3385 63.04 21.2524C60.2871 18.3871 58.2208 15.166 57.7932 11.0803C57.2127 5.53389 61.1548 0.427577 66.3547 0.0623938C68.7269 -0.106152 70.79 0.699123 72.6502 2.10055C73.1434 2.47198 73.6085 2.8871 74.1235 3.31471C74.4044 3.07749 74.6634 2.85901 74.9225 2.6374C77.7753 0.202849 80.9839 -0.789699 84.5515 0.705365C88.2407 2.25349 90.0323 5.31229 90.3913 9.19196C90.7752 13.3432 88.9961 16.7578 86.446 19.8478C85.7313 20.7155 84.9416 21.5208 84.1051 22.4478C86.8674 23.6276 89.2614 25.2444 91.2153 27.4449C96.2092 33.0631 98.0258 39.6988 97.0207 47.043C96.6462 49.7803 95.5631 52.4209 94.8171 55.1114C94.7173 55.4734 94.5831 55.8698 94.6299 56.2288C95.1199 60.071 94.402 61.694 91.1622 63.8445C91.39 64.0568 91.5992 64.2628 91.8208 64.4594C95.0107 67.3091 94.6455 72.1751 91.0186 74.4504C89.046 75.6864 86.9985 76.807 84.8979 78.0274C86.3867 79.3133 87.373 80.7834 87.4105 82.7466C87.4542 85.0002 86.5646 86.8292 84.642 87.9497C77.3196 92.2258 69.9722 96.4582 62.5937 100.641C59.4693 102.41 56.0048 102.919 52.4591 102.944C49.4658 102.966 46.4538 102.807 43.5729 103.89C42.9549 104.124 42.3369 104.358 41.7408 104.642C40.458 105.257 39.3624 105.731 39.5809 107.726C39.8119 109.839 38.451 111.537 36.5596 112.632C34.2717 113.959 31.9839 115.288 29.6866 116.596C28.2041 117.439 27.5049 117.242 26.6403 115.747C21.6557 107.123 16.6774 98.4963 11.699 89.8724C10.5723 87.9185 9.4424 85.9646 8.31876 84.0076C7.38239 82.3721 7.55094 81.776 9.20831 80.8146C11.2621 79.6254 13.347 78.4862 15.3665 77.2471C18.1163 75.5585 20.7256 75.6459 23.2663 77.6965L23.2694 77.6934ZM38.0702 102.932C40.6546 101.362 43.2483 100.201 46.1292 99.9477C48.4108 99.7479 50.7112 99.7292 53.0053 99.6699C56.2513 99.5825 59.3039 98.8428 62.1348 97.1948C68.8923 93.2652 75.6747 89.373 82.4384 85.459C84.0833 84.507 84.5951 83.04 83.8055 81.6636C83.0283 80.309 81.4646 80.0062 79.8509 80.927C77.2852 82.394 74.7321 83.8828 72.1696 85.3591C71.5297 85.7274 70.9024 86.1269 70.2375 86.4484C69.3542 86.8729 68.5583 86.7324 68.0059 85.8647C67.519 85.0969 67.7687 84.2261 68.6051 83.6424C68.7955 83.5082 69.0109 83.4115 69.2107 83.2929C75.5436 79.6348 81.8734 75.9798 88.2064 72.3186C88.6434 72.0658 89.0928 71.8255 89.4955 71.5227C90.6316 70.6644 90.9968 69.2318 90.4381 67.977C89.87 66.7036 88.5747 65.9951 87.1858 66.3009C86.6302 66.4227 86.0996 66.7161 85.6002 67.0063C80.3409 70.0308 75.0879 73.0709 69.8318 76.1016C69.4947 76.2951 69.1607 76.498 68.8018 76.6415C67.9403 76.9849 67.263 76.679 66.8073 75.9299C66.361 75.1933 66.5389 74.491 67.1631 73.9386C67.4784 73.6577 67.8748 73.4673 68.2431 73.2519C75.2471 69.2037 82.2542 65.1586 89.2583 61.1103C89.6609 60.8763 90.0791 60.6515 90.4381 60.3613C91.6273 59.3999 91.9207 57.7644 91.1684 56.4691C90.4131 55.1675 88.8462 54.5995 87.4292 55.1457C86.9985 55.3111 86.5958 55.5639 86.1932 55.7949C79.2859 59.7807 72.3818 63.7696 65.4777 67.7554C65.1406 67.9489 64.816 68.1893 64.4539 68.3079C63.5737 68.5982 62.8153 68.3984 62.3721 67.5338C61.9538 66.7161 62.2129 66.0138 62.9183 65.4863C63.2585 65.2304 63.6486 65.04 64.0169 64.8277C69.3386 61.7533 74.6603 58.6789 79.9757 55.5983C80.4127 55.3455 80.8622 55.0958 81.2367 54.7618C82.3229 53.7973 82.5164 52.2648 81.7517 51.0475C80.9964 49.8427 79.52 49.3496 78.1842 49.8896C77.7534 50.0643 77.3508 50.3078 76.9482 50.5388C69.8006 54.6525 62.6717 58.7944 55.4991 62.8582C54.0915 63.6541 52.5558 64.3127 51.0014 64.7403C47.3434 65.7454 45.1336 63.7728 45.7703 60.0366C46.1823 57.6302 46.9688 55.2924 47.4838 52.8984C48.0425 50.3016 46.4413 47.3239 44.0193 46.2471C42.7614 45.6884 42.3931 45.8632 42.0342 47.1928C40.3238 53.5757 38.5821 59.9524 36.9123 66.3446C35.4078 72.1095 32.1274 76.4792 26.9337 79.4069C26.3376 79.744 25.7539 80.103 25.114 80.4838C29.4525 87.9997 33.7255 95.4001 38.0671 102.922L38.0702 102.932ZM92.2484 52.7704C94.8265 45.7477 94.814 38.984 90.9343 32.4919C88.8899 29.0741 85.9872 26.6333 82.2261 25.2444C81.4677 24.9635 80.9059 25.0228 80.213 25.5253C78.6118 26.6926 76.9107 27.7195 75.2502 28.8057C74.4824 29.3082 73.7239 29.2864 72.953 28.7964C72.0354 28.2096 71.0803 27.679 70.1938 27.0453C69.607 26.6271 69.1638 26.6084 68.5365 26.9985C65.8897 28.6403 63.6486 30.719 61.6791 33.1099C59.8251 35.3603 59.4194 35.2542 57.3906 33.0911C55.4866 31.0592 53.4828 29.0242 51.195 27.4698C43.2608 22.0795 33.7536 24.0146 28.5443 31.9207C25.5417 36.4746 24.6209 41.5278 25.3419 46.8807C26.0972 52.4708 28.6816 57.2744 32.0057 61.7284C32.6206 62.5524 33.2792 63.3451 34.0095 64.2659C34.1593 63.8133 34.253 63.5636 34.3248 63.3046C35.8791 57.5241 37.4179 51.7373 38.9879 45.9599C39.7151 43.2819 41.7938 42.1583 44.4656 42.9386C48.8977 44.2308 51.7287 49.4869 50.5489 54.2686C50.0744 56.1944 49.5001 58.0952 49.0569 60.0242C48.6418 61.8313 48.9414 62.1279 50.7018 61.4287C52.4622 60.7296 54.1789 59.8775 55.8269 58.938C62.5843 55.0864 69.2949 51.1505 76.0524 47.2958C79.9164 45.0891 84.3236 47.0649 85.3411 51.3815C85.4098 51.678 85.4909 51.9745 85.569 52.271C88.7963 51.3909 89.5641 51.4439 92.2453 52.7736L92.2484 52.7704ZM87.1327 10.1408C87.1327 9.86927 87.1639 9.59148 87.1265 9.32306C86.78 6.77302 85.7063 4.66619 83.2 3.68613C80.781 2.73728 78.7054 3.62371 76.8982 5.28107C76.3832 5.75238 75.9431 6.30171 75.4593 6.80735C74.576 7.72811 73.6209 7.71563 72.7439 6.78862C72.1571 6.1675 71.6077 5.49644 70.9523 4.95647C67.263 1.91952 62.7685 3.29598 61.3982 7.87169C60.4244 11.1209 61.5231 13.9393 63.374 16.53C66.0738 20.3129 69.7569 22.9846 73.6678 25.3692C73.8956 25.5097 74.3575 25.5003 74.5885 25.3599C78.1935 23.1594 81.5925 20.6905 84.2456 17.354C85.9185 15.2503 87.1577 12.9374 87.1358 10.1408H87.1327ZM28.9656 113.238C30.8509 112.152 32.6331 111.128 34.409 110.095C36.5877 108.828 36.9435 107.538 35.7012 105.379C33.1793 100.996 30.6448 96.6205 28.1167 92.2414C25.9568 88.5022 23.8094 84.7567 21.6401 81.0237C20.7506 79.4943 19.3897 78.8826 18.0382 79.5786C15.8721 80.6929 13.784 81.9632 11.6179 83.1899C17.4327 93.2652 23.1851 103.225 28.9656 113.238Z" fill="black"/>
<path d="M117.749 21.9329C117.671 22.785 117.25 23.3405 116.366 23.5497C115.311 23.7962 114.209 23.9554 113.223 24.3737C109.475 25.9655 107.218 28.7996 106.503 32.8291C106.441 33.1724 106.472 33.625 106.263 33.831C105.829 34.2648 105.264 34.8516 104.758 34.8454C104.253 34.8391 103.619 34.2804 103.291 33.7966C102.992 33.3503 103.051 32.6761 102.917 32.1081C101.878 27.6822 98.4411 24.4611 93.9528 23.6901C93.6469 23.6371 93.2442 23.6745 93.057 23.4935C92.5888 23.0472 91.9146 22.5072 91.899 21.9891C91.8834 21.4741 92.4733 20.7811 92.9852 20.4565C93.5033 20.1257 94.2555 20.1756 94.8954 20.0164C99.1402 18.9615 102.374 15.4033 103.048 11.0742C103.101 10.7277 103.076 10.2751 103.285 10.0722C103.719 9.64463 104.284 9.07657 104.79 9.08281C105.295 9.08906 105.935 9.62903 106.257 10.1066C106.556 10.5498 106.494 11.2302 106.625 11.7952C107.674 16.2835 111.251 19.5764 115.826 20.2443C116.847 20.3941 117.615 20.7624 117.749 21.9329ZM99.521 21.9454C101.253 23.687 103.117 25.5629 104.765 27.2233C106.463 25.5254 108.338 23.6496 110.036 21.9516C108.36 20.2755 106.466 18.3809 104.774 16.6892C103.076 18.3903 101.2 20.2661 99.521 21.9454Z" fill="black"/>
<path d="M36.3879 13.0061C36.2662 14.0267 35.6825 14.5355 34.6431 14.679C31.4376 15.1254 28.7471 16.5861 27.0211 19.3296C26.0941 20.8029 25.5885 22.5726 25.0797 24.2643C24.7863 25.2381 24.4367 25.9872 23.3693 25.981C22.2956 25.9747 21.8586 25.2256 21.7057 24.2206C20.9441 19.211 17.5357 15.6903 12.5605 14.7477C12.3326 14.704 12.0986 14.6759 11.8707 14.6353C10.9936 14.473 10.4693 13.9736 10.4506 13.0591C10.4287 12.0791 11.003 11.5765 11.9082 11.383C12.6666 11.2207 13.4532 11.1396 14.1804 10.8836C18.3972 9.39168 20.9035 6.41716 21.6901 2.01624C21.9335 0.658506 22.4267 0.0373833 23.4161 0.074838C24.6053 0.118535 24.9049 0.939416 25.0891 1.95069C26.041 7.20058 29.4182 10.4997 34.6962 11.3581C35.67 11.5172 36.2506 11.9979 36.3879 13.0123V13.0061ZM23.3911 7.75616C21.6557 9.48532 19.783 11.3518 18.1225 13.0092C19.8579 14.7477 21.7244 16.6204 23.3911 18.2903C25.0922 16.5892 26.9556 14.7196 28.6598 13.0154C26.9805 11.3362 25.1078 9.46971 23.3911 7.75304V7.75616Z" fill="black"/>
<path d="M106.475 82.2566C105.364 82.1817 104.98 81.4951 104.805 80.4963C104.122 76.6291 101.859 74.1727 98.0665 73.1458C97.6202 73.0241 97.0365 73.1083 96.7244 72.8462C96.2406 72.4435 95.6288 71.8162 95.6413 71.3012C95.6538 70.783 96.278 70.1307 96.8024 69.8217C97.3767 69.4846 98.1632 69.5439 98.8218 69.3161C101.968 68.2236 103.941 66.0481 104.693 62.7896C104.771 62.4494 104.815 62.0998 104.893 61.7596C105.077 60.9387 105.586 60.4643 106.434 60.4331C107.293 60.405 107.82 60.8794 108.058 61.6691C108.167 62.0374 108.161 62.44 108.26 62.8146C109.219 66.5101 111.522 68.8167 115.293 69.6032C115.558 69.6594 115.826 69.7062 116.095 69.7624C116.934 69.9434 117.387 70.5052 117.399 71.3261C117.412 72.1564 116.953 72.7182 116.129 72.9242C115.717 73.0272 115.286 73.0584 114.871 73.1552C111.344 73.9823 108.735 76.7914 108.182 80.412C108.023 81.4514 107.63 82.1848 106.484 82.2598L106.475 82.2566ZM103.394 71.2762C104.268 72.172 105.598 73.5391 106.509 74.4754C107.411 73.564 108.738 72.2219 109.578 71.3761C108.669 70.4584 107.34 69.1163 106.459 68.2236C105.57 69.1101 104.237 70.4397 103.394 71.2793V71.2762Z" fill="black"/>
<path d="M21.8462 60.2862C21.7432 61.3631 21.0815 61.8063 20.0765 61.9561C17.2456 62.3775 15.0482 63.8163 13.6718 66.3196C13.1412 67.284 12.8696 68.4108 12.6043 69.4938C12.3796 70.4146 12.03 71.145 10.9938 71.1824C9.90445 71.223 9.45187 70.5519 9.25835 69.5313C8.44059 65.2084 6.04974 62.8144 1.67691 61.9436C0.674997 61.7439 -0.0272776 61.3038 0.000813407 60.2176C0.0257832 59.1845 0.746785 58.7693 1.68315 58.6008C5.90928 57.833 8.45932 55.336 9.23963 51.1348C9.42378 50.1423 9.78272 49.3932 10.8876 49.3838C12.0518 49.3776 12.4451 50.1579 12.6043 51.2004C13.2036 55.0988 16.0626 57.9578 19.9766 58.5758C21.0097 58.7381 21.7495 59.1408 21.8431 60.2862H21.8462ZM10.9532 57.1276C9.97623 58.117 8.65596 59.4529 7.81011 60.3143C8.67156 61.207 9.97623 62.5585 10.8471 63.4605C11.799 62.5023 13.1224 61.1664 14.0245 60.255C13.163 59.378 11.8458 58.0358 10.9532 57.1276Z" fill="black"/>
</svg>
