<svg width="90" height="90" viewBox="0 0 90 90" fill="none" xmlns="http://www.w3.org/2000/svg">
<g clip-path="url(#clip0_4044_1458)">
<path d="M19.1672 61.319C22.1124 59.8682 24.5187 57.9547 25.951 54.9865C26.2365 54.397 26.2135 54.0102 25.7507 53.4921C22.589 49.9344 19.987 46.0244 18.8057 41.3499C17.2882 35.3559 18.1126 29.735 22.0871 24.8533C27.2129 18.5577 35.6132 17.8462 42.3094 23.0595C43.5943 24.0589 44.7411 25.2332 45.927 26.304C47.5481 24.8717 49.2106 23.4026 50.8801 21.9265C50.1225 21.2127 49.2774 20.4804 48.5083 19.6791C46.4773 17.5652 44.9529 15.1888 44.6375 12.1746C44.2092 8.08268 47.1175 4.31545 50.9538 4.04603C52.7038 3.92169 54.2259 4.51578 55.5983 5.5497C55.9622 5.82372 56.3053 6.12998 56.6852 6.44545C56.8925 6.27045 57.0836 6.10926 57.2747 5.94576C59.3794 4.14965 61.7466 3.41739 64.3786 4.52039C67.1004 5.66253 68.4221 7.91918 68.6869 10.7814C68.9702 13.844 67.6576 16.3632 65.7763 18.6429C65.249 19.283 64.6664 19.8771 64.0493 20.561C66.0872 21.4315 67.8534 22.6243 69.2948 24.2477C72.9792 28.3925 74.3194 33.2881 73.5779 38.7064C73.3016 40.7258 72.5025 42.6739 71.9522 44.6589C71.8785 44.926 71.7795 45.2184 71.814 45.4832C72.1755 48.3179 71.6459 49.5153 69.2557 51.1018C69.4238 51.2584 69.5781 51.4104 69.7416 51.5555C72.0949 53.6578 71.8255 57.2478 69.1498 58.9264C67.6945 59.8383 66.1839 60.665 64.6342 61.5653C65.7326 62.5141 66.4602 63.5986 66.4878 65.047C66.5201 66.7096 65.8638 68.059 64.4453 68.8856C59.0432 72.0404 53.6226 75.1628 48.179 78.2485C45.874 79.5541 43.318 79.9294 40.7021 79.9479C38.4938 79.964 36.2717 79.8465 34.1463 80.6456C33.6904 80.8183 33.2345 80.991 32.7946 81.2005C31.8482 81.6542 31.04 82.0042 31.2012 83.4756C31.3716 85.0345 30.3676 86.2872 28.9721 87.0954C27.2843 88.0741 25.5964 89.0551 23.9016 90.0199C22.8078 90.6416 22.292 90.4965 21.6541 89.3936C17.9767 83.0312 14.3039 76.6665 10.6311 70.3041C9.79981 68.8626 8.96623 67.4211 8.13726 65.9773C7.44645 64.7707 7.57079 64.3309 8.79353 63.6217C10.3087 62.7443 11.8469 61.9038 13.3368 60.9897C15.3655 59.7439 17.2905 59.8084 19.1649 61.3213L19.1672 61.319ZM30.0867 79.9386C31.9933 78.7804 33.9068 77.9238 36.0322 77.7373C37.7155 77.5899 39.4126 77.5761 41.1051 77.5323C43.4999 77.4678 45.752 76.9221 47.8405 75.7063C52.8259 72.8072 57.8297 69.9357 62.8196 67.0481C64.0332 66.3458 64.4108 65.2635 63.8282 64.248C63.2548 63.2486 62.1012 63.0253 60.9107 63.7046C59.0179 64.7868 57.1343 65.8852 55.2437 66.9744C54.7717 67.2461 54.3088 67.5409 53.8184 67.778C53.1667 68.0912 52.5795 67.9876 52.1719 67.3474C51.8127 66.781 51.9969 66.1385 52.614 65.7079C52.7545 65.6089 52.9134 65.5375 53.0608 65.45C57.733 62.7512 62.4028 60.0548 67.075 57.3537C67.3974 57.1672 67.729 56.9899 68.0261 56.7665C68.8642 56.1333 69.1337 55.0763 68.7215 54.1506C68.3024 53.2111 67.3468 52.6884 66.322 52.9141C65.9122 53.0039 65.5207 53.2203 65.1523 53.4345C61.2722 55.6658 57.3968 57.9086 53.519 60.1446C53.2703 60.2873 53.0239 60.437 52.7591 60.5429C52.1236 60.7962 51.6239 60.5706 51.2877 60.0179C50.9584 59.4745 51.0896 58.9564 51.5502 58.5488C51.7828 58.3416 52.0752 58.2011 52.3469 58.0422C57.5142 55.0556 62.6838 52.0713 67.8511 49.0847C68.1481 48.912 68.4567 48.7462 68.7215 48.532C69.5988 47.8228 69.8153 46.6162 69.2603 45.6605C68.7031 44.7003 67.5471 44.2812 66.5017 44.6842C66.1839 44.8062 65.8868 44.9928 65.5898 45.1632C60.4939 48.1037 55.4003 51.0466 50.3067 53.9871C50.058 54.1299 49.8186 54.3072 49.5514 54.3947C48.9021 54.6089 48.3425 54.4615 48.0155 53.8236C47.707 53.2203 47.8981 52.7022 48.4185 52.3131C48.6695 52.1242 48.9573 51.9838 49.2291 51.8272C53.1552 49.559 57.0813 47.2909 61.0028 45.0181C61.3252 44.8316 61.6568 44.6474 61.9331 44.401C62.7344 43.6894 62.8772 42.5588 62.313 41.6607C61.7558 40.7719 60.6666 40.4081 59.681 40.8064C59.3633 40.9354 59.0662 41.115 58.7692 41.2854C53.496 44.3204 48.2366 47.3761 42.945 50.3742C41.9065 50.9614 40.7735 51.4472 39.6268 51.7627C36.928 52.5042 35.2977 51.0489 35.7674 48.2925C36.0714 46.5172 36.6517 44.7924 37.0316 43.0263C37.4438 41.1104 36.2625 38.9136 34.4756 38.1192C33.5476 37.707 33.2759 37.836 33.0111 38.8169C31.7492 43.5259 30.4643 48.2304 29.2324 52.9463C28.1225 57.1994 25.7023 60.4232 21.8706 62.5831C21.4308 62.8318 21.0002 63.0966 20.5281 63.3776C23.7289 68.9225 26.8813 74.3822 30.0844 79.9317L30.0867 79.9386ZM70.057 42.9318C71.9591 37.7508 71.9499 32.7608 69.0876 27.9712C67.5793 25.4497 65.4378 23.649 62.6631 22.6243C62.1035 22.417 61.689 22.4608 61.1778 22.8315C59.9965 23.6927 58.7415 24.4503 57.5165 25.2517C56.95 25.6224 56.3905 25.6063 55.8217 25.2447C55.1447 24.8118 54.4401 24.4204 53.7861 23.9529C53.3532 23.6444 53.0262 23.6306 52.5634 23.9184C50.6107 25.1296 48.9573 26.6632 47.5043 28.4271C46.1365 30.0873 45.8372 30.009 44.3404 28.4133C42.9358 26.9142 41.4574 25.4128 39.7695 24.2661C33.9161 20.2893 26.902 21.717 23.0588 27.5498C20.8436 30.9094 20.1643 34.6375 20.6962 38.5866C21.2535 42.7108 23.1601 46.2546 25.6125 49.5406C26.0661 50.1485 26.552 50.7334 27.0908 51.4127C27.2014 51.0788 27.2704 50.8946 27.3234 50.7035C28.4702 46.4389 29.6054 42.1696 30.7637 37.9073C31.3002 35.9316 32.8338 35.1026 34.8049 35.6783C38.0747 36.6316 40.1633 40.5094 39.2929 44.0371C38.9429 45.4579 38.5192 46.8603 38.1922 48.2833C37.8859 49.6166 38.107 49.8354 39.4057 49.3195C40.7044 48.8037 41.9709 48.1751 43.1868 47.482C48.1721 44.6404 53.1229 41.7367 58.1083 38.8929C60.959 37.2649 64.2105 38.7225 64.9612 41.9071C65.0118 42.1259 65.0717 42.3447 65.1292 42.5634C67.5102 41.914 68.0767 41.9532 70.0547 42.9341L70.057 42.9318ZM66.2829 11.4815C66.2829 11.2811 66.3059 11.0762 66.2783 10.8782C66.0227 8.99685 65.2306 7.44252 63.3815 6.71947C61.5969 6.01945 60.0656 6.67342 58.7323 7.89616C58.3524 8.24387 58.0277 8.64914 57.6708 9.02218C57.0191 9.70148 56.3145 9.69227 55.6674 9.00836C55.2345 8.55013 54.8292 8.05504 54.3457 7.65668C51.6239 5.41614 48.308 6.43164 47.2971 9.8074C46.5786 12.2045 47.3892 14.2839 48.7547 16.1951C50.7465 18.986 53.4637 20.9571 56.349 22.7164C56.5171 22.82 56.8579 22.8131 57.0283 22.7095C59.688 21.0861 62.1956 19.2646 64.1529 16.803C65.3872 15.251 66.3013 13.5447 66.2852 11.4815H66.2829ZM23.3697 87.5422C24.7605 86.7408 26.0753 85.9856 27.3856 85.2234C28.9929 84.2885 29.2554 83.3374 28.3389 81.744C26.4783 78.511 24.6085 75.2826 22.7433 72.0519C21.1499 69.2932 19.5656 66.53 17.9652 63.7759C17.3089 62.6476 16.305 62.1963 15.3079 62.7098C13.7098 63.5319 12.1693 64.4691 10.5712 65.374C14.8612 72.8072 19.1051 80.1551 23.3697 87.5422Z" fill="black"/>
<path d="M88.8701 20.1815C88.8125 20.8101 88.5016 21.22 87.85 21.3743C87.0717 21.5562 86.2588 21.6736 85.5311 21.9822C82.7656 23.1565 81.1007 25.2474 80.5734 28.2202C80.5274 28.4735 80.5504 28.8074 80.3961 28.9594C80.076 29.2794 79.6592 29.7124 79.2862 29.7077C78.9132 29.7031 78.4457 29.291 78.2039 28.934C77.9829 28.6048 78.0266 28.1074 77.9276 27.6883C77.1608 24.423 74.6255 22.0466 71.3142 21.4779C71.0886 21.4387 70.7915 21.4664 70.6534 21.3328C70.308 21.0035 69.8106 20.6051 69.7991 20.2229C69.7875 19.843 70.2228 19.3318 70.6004 19.0923C70.9826 18.8482 71.5376 18.885 72.0097 18.7676C75.1413 17.9893 77.5269 15.3642 78.0243 12.1703C78.0635 11.9147 78.045 11.5808 78.1993 11.4312C78.5194 11.1157 78.9362 10.6966 79.3092 10.7012C79.6823 10.7058 80.1543 11.1042 80.3915 11.4565C80.6126 11.7835 80.5665 12.2855 80.6632 12.7023C81.4369 16.0136 84.0758 18.4429 87.4516 18.9357C88.2046 19.0462 88.7711 19.3179 88.8701 20.1815ZM75.4223 20.1907C76.7003 21.4756 78.075 22.8595 79.2908 24.0845C80.5435 22.8319 81.9274 21.4479 83.1801 20.1953C81.9435 18.9587 80.5458 17.561 79.2977 16.3129C78.045 17.5679 76.6611 18.9518 75.4223 20.1907Z" fill="black"/>
<path d="M28.8454 13.596C28.7556 14.349 28.325 14.7243 27.5582 14.8302C25.1933 15.1595 23.2084 16.2372 21.935 18.2613C21.2511 19.3481 20.878 20.6538 20.5027 21.9018C20.2862 22.6203 20.0283 23.1729 19.2408 23.1683C18.4487 23.1637 18.1263 22.6111 18.0135 21.8696C17.4516 18.1738 14.9371 15.5763 11.2665 14.8809C11.0984 14.8487 10.9257 14.8279 10.7576 14.798C10.1106 14.6783 9.72373 14.3098 9.70992 13.6351C9.6938 12.9121 10.1175 12.5413 10.7853 12.3986C11.3448 12.2788 11.9251 12.219 12.4617 12.0301C15.5726 10.9294 17.4217 8.73496 18.002 5.48815C18.1816 4.48647 18.5454 4.02823 19.2754 4.05586C20.1527 4.0881 20.3737 4.69371 20.5096 5.43979C21.2119 9.31294 23.7035 11.7469 27.5973 12.3801C28.3158 12.4976 28.7441 12.8522 28.8454 13.6006V13.596ZM19.2569 9.72283C17.9766 10.9985 16.595 12.3755 15.37 13.5983C16.6503 14.8809 18.0273 16.2625 19.2569 17.4945C20.5119 16.2395 21.8866 14.8602 23.1439 13.6029C21.9051 12.364 20.5234 10.987 19.2569 9.72052V9.72283Z" fill="black"/>
<path d="M80.5528 64.6873C79.733 64.6321 79.4498 64.1255 79.3208 63.3886C78.8165 60.5356 77.1471 58.7233 74.3493 57.9657C74.02 57.8759 73.5894 57.9381 73.3591 57.7447C73.0022 57.4476 72.5509 56.9848 72.5601 56.6048C72.5693 56.2226 73.0298 55.7413 73.4167 55.5134C73.8404 55.2647 74.4207 55.3084 74.9065 55.1403C77.2277 54.3344 78.683 52.7294 79.2379 50.3254C79.2955 50.0744 79.3277 49.8165 79.3853 49.5655C79.5212 48.9598 79.8965 48.6098 80.5228 48.5868C81.1561 48.5661 81.5452 48.9161 81.7202 49.4987C81.8008 49.7704 81.7962 50.0675 81.8699 50.3438C82.5768 53.0702 84.2762 54.7719 87.0579 55.3522C87.2536 55.3936 87.4517 55.4282 87.6497 55.4696C88.2691 55.6032 88.603 56.0176 88.6122 56.6233C88.6215 57.2358 88.283 57.6503 87.675 57.8022C87.3711 57.8782 87.0533 57.9013 86.747 57.9726C84.145 58.5829 82.2199 60.6553 81.8123 63.3264C81.6949 64.0932 81.4048 64.6344 80.5597 64.6896L80.5528 64.6873ZM78.28 56.5864C78.9248 57.2473 79.9057 58.2559 80.5781 58.9467C81.2436 58.2743 82.2222 57.2841 82.8417 56.6601C82.1716 55.9831 81.1906 54.9929 80.5413 54.3344C79.885 54.9883 78.9017 55.9693 78.28 56.5887V56.5864Z" fill="black"/>
<path d="M18.1172 48.475C18.0413 49.2695 17.5531 49.5964 16.8116 49.707C14.7231 50.0178 13.1019 51.0794 12.0865 52.9262C11.695 53.6377 11.4947 54.469 11.2989 55.268C11.1331 55.9473 10.8752 56.4861 10.1107 56.5138C9.30709 56.5437 8.9732 56.0486 8.83043 55.2956C8.22712 52.1064 6.46325 50.3402 3.23715 49.6978C2.49798 49.5504 1.97988 49.2257 2.0006 48.4244C2.01902 47.6622 2.55095 47.3559 3.24176 47.2316C6.35962 46.6651 8.24094 44.8229 8.81661 41.7235C8.95247 40.9912 9.21728 40.4386 10.0324 40.4317C10.8914 40.4271 11.1815 41.0027 11.2989 41.7718C11.741 44.6479 13.8503 46.7572 16.7379 47.2131C17.5001 47.3329 18.0459 47.6299 18.1149 48.475H18.1172ZM10.0808 46.1447C9.36005 46.8746 8.38601 47.8602 7.76197 48.4957C8.39752 49.1543 9.36005 50.1514 10.0025 50.8169C10.7048 50.1099 11.6812 49.1244 12.3467 48.452C11.7111 47.8049 10.7394 46.8148 10.0808 46.1447Z" fill="black"/>
</g>
<defs>
<clipPath id="clip0_4044_1458">
<rect width="90" height="90" fill="white"/>
</clipPath>
</defs>
</svg>
