<svg width="118" height="33" viewBox="0 0 118 33" fill="none" xmlns="http://www.w3.org/2000/svg">
<path d="M35.5633 9.75586H28.7074V31.4991H35.5633V9.75586Z" fill="white"/>
<path d="M0 31.5308V0.197266H24.3931V6.24997H7.19139V13.37H23.2148V19.4676H7.19139V31.5281H0V31.5308Z" fill="white"/>
<path d="M35.5633 0.166016H28.7074V6.23721H35.5633V0.166016Z" fill="white"/>
<path d="M41.1034 31.5308C41.1457 28.3763 41.1457 26.6934 41.1457 24.2971V0.197266H48.0015V12.1415C49.0953 10.8364 51.0715 9.19839 55.1929 9.19839C61.1241 9.19839 65.7924 13.7822 65.7924 20.218C65.7924 27.7052 60.8731 32.1199 54.7728 32.1199C51.0266 32.1199 49.1508 30.8941 48.0781 29.544C47.9672 29.404 47.7453 29.4753 47.74 29.6524L47.6977 31.5281H41.1034V31.5308ZM58.7252 20.5535C58.7252 17.4835 57.1268 14.5404 53.3409 14.5404C49.555 14.5404 47.8324 16.9789 47.8324 20.638C47.8324 24.0858 49.6818 26.6934 53.259 26.6934C56.8362 26.6934 58.7252 23.959 58.7252 20.5535Z" fill="white"/>
<path d="M95.4114 31.5309V15.2961C95.4114 13.4441 95.4114 11.3438 95.3691 9.78768H102.072L102.304 12.5538C103.324 11.0479 105.303 9.20117 109.504 9.20117C114.846 9.20117 118 12.5247 118 18.1177V31.5336H111.062V19.2115C111.062 16.7307 110.095 14.5432 107.025 14.5432C103.786 14.5432 102.315 16.773 102.315 20.6831V31.5336H95.4167L95.4114 31.5309Z" fill="white"/>
<path d="M80.5398 9.18555C74.207 9.18555 69.0737 14.3189 69.0737 20.6516C69.0737 26.9844 74.207 32.1177 80.5398 32.1177C86.8725 32.1177 92.0058 26.9844 92.0058 20.6516C92.0058 14.3189 86.8725 9.18555 80.5398 9.18555ZM80.5398 26.3371C77.4012 26.3371 74.8543 23.7929 74.8543 20.6516C74.8543 17.5103 77.3985 14.9661 80.5398 14.9661C83.6811 14.9661 86.2253 17.5103 86.2253 20.6516C86.2253 23.7929 83.6811 26.3371 80.5398 26.3371Z" fill="white"/>
</svg>
