<svg width="111" height="117" viewBox="0 0 111 117" fill="none" xmlns="http://www.w3.org/2000/svg">
<path d="M75.4805 111.617C74.1633 112.035 72.9742 112.391 71.8006 112.79C70.8611 113.112 69.9591 113.24 69.2256 112.4C68.5295 111.604 68.748 110.768 69.1351 109.894C70.936 105.802 72.6995 101.691 74.516 97.6053C74.8344 96.8875 74.8375 96.4349 74.1477 95.9417C73.3955 95.4018 72.7494 94.7151 72.0128 94.0534C67.0626 96.9124 62.1154 99.7715 57.1683 102.631C54.3061 104.285 51.4284 105.911 48.5881 107.603C47.5612 108.211 46.6779 108.177 45.6541 107.584C30.9469 99.063 16.2272 90.5608 1.49821 82.0804C0.421388 81.4593 -0.00310414 80.6571 1.70758e-05 79.4305C0.0218656 62.4885 0.0249868 45.5434 1.70758e-05 28.6014C1.70758e-05 27.3186 0.471321 26.5164 1.57935 25.8797C16.246 17.443 30.9001 8.98453 45.5355 0.494812C46.6966 -0.179372 47.6298 -0.154402 48.7722 0.507297C63.3421 8.95644 77.9244 17.3806 92.5255 25.7736C93.7615 26.4821 94.2577 27.3373 94.2484 28.7606C94.2016 38.0306 94.2359 47.3006 94.2047 56.5707C94.2047 57.4352 94.4232 57.816 95.2878 58.1375C103.075 61.009 108.113 66.4774 109.751 74.6269C111.44 83.023 108.784 90.1425 102.373 95.8138C101.664 96.4411 101.518 96.8781 101.911 97.7489C103.684 101.682 105.382 105.652 107.105 109.61C107.198 109.825 107.386 110.04 107.373 110.249C107.326 110.98 107.457 111.929 107.055 112.372C106.652 112.818 105.647 112.996 104.989 112.871C103.631 112.612 102.323 112.075 100.887 111.617C100.41 112.631 99.954 113.608 99.492 114.582C99.0114 115.596 98.6587 116.782 97.2135 116.742C95.8433 116.704 95.5187 115.571 95.0818 114.572C93.2683 110.399 91.4424 106.232 89.6477 102.053C89.3637 101.391 89.0797 101.017 88.2307 101.02C87.363 101.023 87.0228 101.36 86.7106 102.084C84.8598 106.41 82.9558 110.714 81.0956 115.034C80.7023 115.946 80.2341 116.729 79.123 116.745C78.0056 116.76 77.5155 115.974 77.1129 115.075C76.6041 113.942 76.0579 112.828 75.4867 111.617H75.4805ZM90.3937 56.9421C90.4155 56.6581 90.4436 56.4708 90.4436 56.2804C90.4436 47.438 90.4343 38.5955 90.4686 29.7531C90.4686 29.004 90.0909 28.7356 89.5697 28.4391C85.7243 26.2293 81.8759 24.0257 78.0493 21.7815C77.4469 21.4288 77.0005 21.3789 76.3638 21.7472C62.465 29.8031 48.5506 37.8402 34.6299 45.8586C34.0494 46.1926 33.8216 46.5484 33.8309 47.2226C33.8652 50.4562 33.8497 53.6898 33.8465 56.9234C33.8434 59.3829 32.5044 60.1725 30.3882 58.9521C25.7719 56.2897 21.1681 53.6055 16.5394 50.9649C15.5499 50.4 15.1098 49.6696 15.1223 48.5179C15.166 44.7787 15.1785 41.0395 15.1161 37.3002C15.0942 36.0049 15.5843 35.2371 16.6986 34.5973C27.4262 28.4391 38.132 22.2372 48.8409 16.0479C51.9995 14.2219 55.1613 12.396 58.4199 10.5171C57.9642 10.2299 57.6146 9.99269 57.2494 9.78044C54.2531 8.04817 51.2317 6.35334 48.2666 4.56488C47.4051 4.04676 46.784 4.11855 45.9537 4.59922C32.2922 12.5271 18.6212 20.43 4.92843 28.3049C4.08258 28.7918 3.74236 29.2849 3.74548 30.2837C3.77981 46.099 3.77981 61.9142 3.74548 77.7325C3.74548 78.7376 4.07945 79.2338 4.91906 79.7176C18.7117 87.6487 32.4857 95.6109 46.2534 103.589C46.9213 103.976 47.3958 103.951 48.0481 103.573C54.637 99.734 61.2415 95.9293 67.8429 92.112C68.4421 91.7655 69.0352 91.4128 69.6344 91.0633C59.7683 75.4072 71.8162 55.5313 90.3906 56.9514L90.3937 56.9421ZM88.1402 60.6844C78.0961 60.7032 69.8623 68.9775 69.8873 79.0247C69.9122 89.0688 78.2022 97.3276 88.2244 97.2901C98.2748 97.2526 106.512 88.9752 106.48 78.9404C106.449 68.8776 98.1967 60.6657 88.1402 60.6844ZM73.4142 19.116C69.7218 16.9873 66.2323 14.9523 62.7085 12.9797C62.4119 12.8143 61.8158 12.936 61.4756 13.1295C47.5206 21.1604 33.5781 29.2132 19.6543 37.2971C19.286 37.5094 18.9427 38.1086 18.9333 38.5362C18.8709 41.3766 18.924 44.2231 18.8834 47.0634C18.874 47.747 19.1206 48.1028 19.6887 48.4243C22.8349 50.2096 25.9592 52.0324 29.0929 53.8365C29.3769 53.9988 29.6859 54.1143 30.0886 54.2984C30.0886 51.4519 30.1479 48.7645 30.0636 46.0834C30.0199 44.7038 30.5099 43.861 31.7116 43.1744C39.6145 38.6611 47.4863 34.0979 55.3673 29.5471C61.3257 26.1044 67.2842 22.6617 73.4142 19.1191V19.116ZM78.9887 110.415C80.5057 106.928 81.8759 103.773 83.2586 100.599C81.5013 99.9587 79.8471 99.3595 78.1179 98.729C76.7852 101.791 75.4649 104.828 73.9761 108.249C76.7321 106.676 78.2615 107.571 78.9887 110.415ZM98.2529 98.7352C96.4925 99.3751 94.8633 99.965 93.1123 100.602C94.4856 103.764 95.8652 106.932 97.3914 110.443C98.1031 107.496 99.6918 106.741 102.379 108.214C100.9 104.815 99.5888 101.8 98.2529 98.7321V98.7352Z" fill="black"/>
<path d="M86.4827 85.1266C86.773 84.6709 87.004 84.3245 87.2225 83.9655C90.094 79.2431 92.9655 74.5207 95.8339 69.7983C95.9962 69.533 96.146 69.2583 96.3208 69.0024C96.9763 68.0504 98.0625 67.7695 98.9551 68.3157C99.8541 68.8651 100.101 69.9263 99.5138 70.975C98.9832 71.927 98.3965 72.8446 97.8315 73.7779C94.8601 78.6657 91.8918 83.5567 88.9173 88.4414C87.8093 90.261 86.7699 90.414 85.1656 89.0063C82.5625 86.7184 79.922 84.4712 77.3844 82.1115C76.9069 81.6652 76.6103 80.7476 76.6696 80.089C76.7133 79.6021 77.4312 78.8873 77.9306 78.8093C78.5517 78.7156 79.3882 79.009 79.9032 79.4242C81.6917 80.8662 83.3771 82.4299 85.1032 83.9468C85.5339 84.3245 85.9771 84.6928 86.4827 85.1235V85.1266Z" fill="black"/>
</svg>
