<svg width="90" height="90" viewBox="0 0 90 90" fill="none" xmlns="http://www.w3.org/2000/svg">
<path d="M59.6864 84.346C58.7146 84.6546 57.8373 84.9171 56.9715 85.2118C56.2784 85.449 55.6129 85.5434 55.0717 84.924C54.5582 84.3368 54.7194 83.7197 55.005 83.0749C56.3336 80.0561 57.6347 77.0234 58.9748 74.0092C59.2097 73.4796 59.212 73.1457 58.7031 72.7818C58.1482 72.3835 57.6715 71.8769 57.1281 71.3887C53.476 73.498 49.8262 75.6073 46.1764 77.7165C44.0648 78.937 41.9417 80.1367 39.8463 81.3847C39.0887 81.8338 38.437 81.8084 37.6817 81.3709C26.8313 75.0845 15.9718 68.812 5.10532 62.5555C4.31088 62.0973 3.99771 61.5055 4.00001 60.6005C4.01613 48.1014 4.01843 35.6 4.00001 23.1009C4.00001 22.1545 4.34772 21.5627 5.16518 21.093C15.9856 14.8687 26.7968 8.62841 37.5942 2.36505C38.4508 1.86767 39.1393 1.88609 39.9821 2.37426C50.7311 8.60769 61.4894 14.8227 72.2615 21.0147C73.1733 21.5374 73.5395 22.1683 73.5325 23.2184C73.498 30.0574 73.5233 36.8964 73.5003 43.7355C73.5003 44.3733 73.6615 44.6543 74.2993 44.8914C80.0446 47.0099 83.7612 51.0443 84.9701 57.0566C86.2159 63.2509 84.2563 68.5034 79.5265 72.6874C79.0038 73.1503 78.8955 73.4726 79.1857 74.1151C80.4936 77.0165 81.7463 79.9455 83.0174 82.8654C83.0865 83.0243 83.2246 83.1832 83.2154 83.3374C83.1809 83.8763 83.2776 84.5763 82.9806 84.9033C82.6835 85.2326 81.942 85.3638 81.4562 85.2717C80.4545 85.0806 79.4896 84.6845 78.4304 84.346C78.0781 85.0944 77.7419 85.8151 77.4011 86.5336C77.0465 87.282 76.7863 88.157 75.7201 88.1271C74.7092 88.0994 74.4698 87.2636 74.1474 86.5267C72.8095 83.448 71.4624 80.3739 70.1384 77.2905C69.9288 76.8024 69.7193 76.526 69.0929 76.5283C68.4528 76.5306 68.2018 76.7793 67.9715 77.3136C66.606 80.5051 65.2014 83.6805 63.8289 86.8675C63.5388 87.5399 63.1934 88.1179 62.3736 88.1294C61.5493 88.1409 61.1877 87.5606 60.8907 86.8974C60.5154 86.0615 60.1124 85.2395 59.691 84.346H59.6864ZM70.6887 44.0095C70.7048 43.8 70.7255 43.6618 70.7255 43.5213C70.7255 36.9978 70.7186 30.4742 70.744 23.9506C70.744 23.398 70.4653 23.1999 70.0808 22.9812C67.2439 21.3509 64.4046 19.7252 61.5815 18.0695C61.1371 17.8093 60.8078 17.7725 60.338 18.0442C50.0841 23.9875 39.8186 29.9169 29.5485 35.8326C29.1202 36.079 28.9521 36.3415 28.959 36.8389C28.9844 39.2245 28.9729 41.6101 28.9706 43.9957C28.9683 45.8102 27.9804 46.3928 26.4192 45.4924C23.0135 43.5282 19.617 41.5479 16.2021 39.5998C15.4721 39.183 15.1474 38.6442 15.1566 37.7945C15.1889 35.0359 15.1981 32.2772 15.152 29.5186C15.1359 28.5629 15.4974 27.9965 16.3195 27.5244C24.2339 22.9812 32.1322 18.4057 40.0328 13.8394C42.3631 12.4924 44.6958 11.1453 47.0998 9.75904C46.7636 9.54719 46.5057 9.37219 46.2363 9.2156C44.0257 7.9376 41.7966 6.68723 39.6091 5.36778C38.9735 4.98553 38.5153 5.03849 37.9028 5.39311C27.8238 11.242 17.738 17.0724 7.63599 22.8822C7.01195 23.2414 6.76096 23.6052 6.76326 24.3421C6.78859 36.0099 6.78859 47.6777 6.76326 59.3478C6.76326 60.0893 7.00965 60.4554 7.62908 60.8124C17.8047 66.6635 27.9666 72.5377 38.1238 78.4235C38.6166 78.709 38.9666 78.6906 39.4479 78.4119C44.3089 75.5796 49.1814 72.7726 54.0517 69.9564C54.4938 69.7008 54.9313 69.4406 55.3734 69.1827C48.0945 57.6323 56.983 42.9687 70.6864 44.0164L70.6887 44.0095ZM69.0261 46.7704C61.616 46.7843 55.5415 52.8887 55.5599 60.3012C55.5783 67.7113 61.6943 73.8042 69.0883 73.7766C76.503 73.749 82.5799 67.6422 82.5569 60.239C82.5338 52.8151 76.4455 46.7566 69.0261 46.7704ZM58.162 16.103C55.4379 14.5326 52.8635 13.0312 50.2637 11.5759C50.0449 11.4538 49.6051 11.5436 49.3541 11.6864C39.0587 17.6113 28.7725 23.5523 18.5002 29.5163C18.2284 29.6729 17.9751 30.115 17.9682 30.4304C17.9222 32.5259 17.9613 34.626 17.9314 36.7214C17.9245 37.2257 18.1064 37.4882 18.5255 37.7254C20.8466 39.0426 23.1516 40.3873 25.4635 41.7183C25.6731 41.8381 25.9011 41.9233 26.1981 42.0591C26.1981 39.959 26.2419 37.9764 26.1797 35.9984C26.1475 34.9806 26.509 34.3589 27.3955 33.8523C33.226 30.5226 39.0334 27.156 44.8477 23.7986C49.2436 21.2588 53.6395 18.7189 58.162 16.1053V16.103ZM62.2746 83.4595C63.3937 80.8874 64.4046 78.5593 65.4247 76.2175C64.1283 75.7454 62.9079 75.3033 61.6322 74.8381C60.6489 77.0971 59.6749 79.3376 58.5765 81.8614C60.6098 80.7008 61.7381 81.3617 62.2746 83.4595ZM76.4869 74.8428C75.1882 75.3148 73.9862 75.75 72.6944 76.2198C73.7076 78.5524 74.7253 80.8897 75.8514 83.4802C76.3764 81.3065 77.5485 80.7492 79.5311 81.8361C78.4396 79.3284 77.4725 77.104 76.4869 74.8404V74.8428Z" fill="black"/>
<path d="M67.8032 64.8016C68.0174 64.4654 68.1878 64.2098 68.349 63.945C70.4675 60.461 72.586 56.977 74.7022 53.493C74.8219 53.2973 74.9324 53.0947 75.0614 52.9058C75.5449 52.2035 76.3463 51.9963 77.0049 52.3992C77.668 52.8045 77.8499 53.5874 77.417 54.3612C77.0256 55.0635 76.5927 55.7405 76.1759 56.429C73.9837 60.035 71.7938 63.6434 69.5994 67.2471C68.7819 68.5896 68.0151 68.7024 66.8315 67.6639C64.911 65.976 62.963 64.3181 61.0909 62.5772C60.7385 62.2479 60.5198 61.5709 60.5635 61.0851C60.5958 60.7258 61.1254 60.1985 61.4938 60.141C61.9521 60.0719 62.5692 60.2883 62.9491 60.5946C64.2686 61.6584 65.5121 62.8121 66.7854 63.9312C67.1032 64.2098 67.4302 64.4816 67.8032 64.7993V64.8016Z" fill="black"/>
</svg>
