<svg width="90" height="90" viewBox="0 0 90 90" fill="none" xmlns="http://www.w3.org/2000/svg">
<path d="M83.9232 71.8733C84.8239 75.2311 83.8265 76.8938 80.12 78.2683C80.12 80.0833 80.12 81.9213 80.12 83.7616C80.12 84.4742 79.9565 85.09 79.171 85.3067C78.1804 85.5789 77.4456 85 77.4249 83.8861C77.3972 82.3318 77.4179 80.7797 77.4156 79.2254C77.4156 78.9117 77.4156 78.6004 77.4156 78.2522C76.6393 78.04 76.1602 78.1115 75.9114 78.9855C75.552 80.2539 75.0568 81.4854 74.6191 82.7307C74.2252 83.8492 73.9326 84.0522 72.7186 84.0545C70.6201 84.0568 68.5215 84.0776 66.4253 84.0384C65.9323 84.0291 65.3979 83.8931 64.9625 83.6624C62.0946 82.145 59.2497 80.5883 56.3955 79.0432C56.1467 78.9094 55.8933 78.7826 55.4856 78.5727C55.4856 79.3222 55.4856 79.961 55.4856 80.6022C55.4856 81.6676 55.4879 82.7307 55.4856 83.7962C55.481 84.977 55.0664 85.4982 54.1426 85.4912C53.2189 85.4866 52.8319 84.9908 52.825 83.7708C52.8158 82.2741 52.8227 80.7774 52.8227 79.283C52.8227 78.9994 52.8227 78.7134 52.8227 78.3513H50.3878C49.881 79.6774 49.7566 79.7627 48.2524 79.7627C44.8039 79.7627 41.3555 79.7512 37.907 79.7835C37.5776 79.7858 37.1146 79.9749 36.9441 80.2309C35.5827 82.258 33.4773 82.9429 31.2359 82.0158C31.0816 81.9513 30.9249 81.8936 30.7798 81.8383C28.7872 84.0107 27.7252 84.3635 25.0208 83.7362C24.3251 85.8625 22.9016 87.1494 20.598 87.1033C18.4165 87.0594 17.062 85.8003 16.4124 83.7685C12.6161 84.3774 11.0013 83.4088 10.0591 79.8988C8.88891 79.8988 7.68644 79.9218 6.48628 79.8918C5.51187 79.8665 5.02121 79.3268 5.08111 78.432C5.13179 77.6733 5.60172 77.2328 6.46786 77.2121C7.64269 77.1867 8.81981 77.2052 10.1259 77.2052C10.1259 76.2573 10.1582 75.3487 10.1006 74.4424C10.0891 74.2579 9.7758 74.0157 9.55235 73.9327C8.17942 73.4253 6.79959 72.941 5.41053 72.4821C4.58585 72.2077 4.17351 71.6911 4.25413 70.8101C4.25644 70.7825 4.25413 70.7525 4.25413 70.7248C4.26104 68.3379 3.84409 65.8449 4.39695 63.5895C4.9406 61.3687 6.46325 59.39 7.55745 57.3052C7.93984 56.5741 8.32684 55.8454 8.79216 54.9644C8.03429 54.9644 7.41461 54.969 6.79495 54.9644C5.58558 54.9552 5.08341 54.5677 5.0765 53.6499C5.06958 52.7251 5.58558 52.3123 6.76731 52.3054C7.79701 52.3008 8.82672 52.3054 9.92322 52.3054V49.6095C8.57563 49.0445 8.54569 49.0053 8.54569 47.5224C8.54569 43.3782 8.53646 39.2363 8.55489 35.0921C8.55719 34.5156 8.44894 34.2065 7.82928 33.9805C5.73073 33.2195 4.64573 31.0079 5.19167 28.7939C5.24696 28.5725 5.31376 28.3558 5.38978 28.0906C3.20599 27.3641 1.95516 25.9366 2.00123 23.5705C2.04039 21.6563 3.04936 20.4225 5.37367 19.424C4.64343 17.0832 5.19859 15.1391 7.24647 13.7415C7.06219 13.1396 6.8249 12.6046 6.73736 12.0465C6.48627 10.4552 6.94929 9.10844 8.1771 8.01531C8.43279 7.787 8.6217 7.36958 8.64934 7.02135C8.71845 6.19343 8.65625 5.35398 8.67698 4.51915C8.70232 3.51135 9.193 2.98554 10.043 3.0086C10.8631 3.03167 11.3146 3.54825 11.3307 4.50992C11.3445 5.25712 11.333 6.00432 11.333 6.8899C11.667 6.8899 11.9665 6.8899 12.2682 6.8899C17.4974 6.87836 22.7288 6.81149 27.9579 6.8899C29.7385 6.91526 31.5146 7.30731 33.4081 7.54485C33.4081 6.66158 33.4081 5.58921 33.4081 4.51915C33.4081 3.8642 33.5924 3.32224 34.2789 3.09163C35.2487 2.76646 36.0434 3.32916 36.0826 4.4246C36.1241 5.60305 36.1379 6.78612 36.0826 7.96227C36.0526 8.61722 36.2968 8.86859 36.905 8.99313C37.7711 9.1707 38.6188 9.44052 39.5426 9.68728C39.8674 8.608 40.6736 8.45809 41.648 8.46501C45.8152 8.49499 49.9824 8.46963 54.1495 8.48577C54.6771 8.48577 55.018 8.36585 55.3589 7.90461C56.665 6.13578 58.425 5.71605 60.5281 6.4056C61.2376 4.26547 62.6589 2.97632 64.9533 3.02014C67.1348 3.06395 68.4939 4.3139 69.1642 6.41252C71.5461 5.63303 73.4673 6.24878 74.8909 8.3105C76.5887 7.5656 78.2357 7.40187 79.8689 8.39583C80.0648 8.51575 80.3734 8.47193 80.6291 8.47424C82.4397 8.48116 84.2503 8.46501 86.061 8.48346C87.0446 8.49269 87.5421 8.94008 87.5744 9.76339C87.6089 10.6443 87.1068 11.1609 86.1139 11.1794C84.6834 11.2047 83.2506 11.1863 81.9951 11.1863C81.8938 15.2867 81.7947 19.2994 81.6957 23.3099C81.6911 23.5405 81.7003 23.7711 81.6957 23.9994C81.6381 27.0758 82.3199 30.2169 80.5854 33.2887C81.7855 33.2887 82.6885 33.2887 83.5915 33.2887C84.5406 33.291 85.4897 33.261 86.4364 33.3163C87.2427 33.3625 87.6734 33.9967 87.5629 34.8361C87.4661 35.5741 86.9524 35.8877 86.1669 35.8693C84.1282 35.8185 82.0896 35.8139 80.0509 35.8393C79.8436 35.8416 79.5303 36.1414 79.4543 36.3674C79.1917 37.1538 79.0143 37.9679 78.7747 38.8835C79.9634 39.1971 79.991 40.1196 79.9795 41.1274C79.9473 44.1761 79.9795 47.2272 79.9565 50.2783C79.9519 50.8179 80.0763 51.1385 80.5784 51.4383C82.3983 52.5176 83.0962 54.6669 82.3591 56.701C82.2623 56.9662 82.1426 57.2222 82.0389 57.4689C84.225 59.4914 84.582 60.5661 83.944 63.2482C86.0955 63.9539 87.3878 65.4114 87.3072 67.7452C87.2335 69.8807 85.9941 71.2275 83.9209 71.8779L83.9232 71.8733ZM73.5456 78.2706C73.055 78.2706 72.7463 78.2706 72.4376 78.2706C70.8274 78.266 69.2195 78.2867 67.6093 78.2475C66.7708 78.2268 66.3332 77.7194 66.3401 76.9261C66.347 76.1512 66.8192 75.6692 67.6347 75.6162C67.8627 75.6024 68.0954 75.6093 68.3234 75.6093C72.0598 75.6093 75.7962 75.6093 79.5303 75.6093C79.8159 75.6093 80.1108 75.6208 80.3896 75.5678C81.2534 75.3994 81.8869 74.6038 81.8431 73.7828C81.7947 72.9018 81.0783 72.1685 80.1477 72.1546C78.1643 72.1247 76.1809 72.1592 74.1999 72.1339C72.9559 72.1177 72.3017 71.2483 72.7302 70.2244C73.025 69.521 73.6378 69.4287 74.3035 69.4287C77.2337 69.4333 80.1661 69.4403 83.0963 69.4218C84.0476 69.4172 84.7111 68.8476 84.8815 67.9874C85.0313 67.2333 84.5798 66.3615 83.7827 66.0364C83.398 65.8795 82.9488 65.8265 82.5273 65.8242C79.7399 65.8057 76.9526 65.8103 74.1653 65.8173C73.5525 65.8173 73.0158 65.6973 72.7394 65.0747C72.3132 64.113 72.9006 63.1905 73.9925 63.1721C75.8031 63.1444 77.6137 63.1629 79.4243 63.1606C79.7123 63.1606 80.0025 63.1721 80.2836 63.126C81.2096 62.9784 81.8753 62.2035 81.8431 61.3456C81.8085 60.4646 81.1244 59.722 80.1661 59.6967C78.185 59.6459 76.2017 59.6736 74.2183 59.6621C73.025 59.6552 72.509 59.247 72.5021 58.3337C72.4975 57.4113 73.0227 56.9892 74.1929 56.9846C75.6304 56.98 77.0678 57.0054 78.5029 56.9685C79.4888 56.9431 80.2052 56.1913 80.2214 55.2688C80.2375 54.3141 79.4934 53.5692 78.4684 53.5161C78.238 53.5046 78.0076 53.5115 77.7796 53.5115C73.928 53.5115 70.0764 53.5853 66.2272 53.4885C63.1864 53.4124 60.2287 53.7029 57.3031 54.5516C54.9972 55.2204 52.6476 55.7324 50.3279 56.3112V75.6116C51.0812 75.6116 51.7976 75.6716 52.5025 75.6001C54.5941 75.3902 56.4462 75.9829 58.2453 77.0184C60.7585 78.4643 63.3316 79.8042 65.8862 81.1764C66.1788 81.3332 66.522 81.4762 66.8445 81.4831C68.51 81.5131 70.1778 81.5085 71.8456 81.4831C72.0529 81.4808 72.3731 81.3378 72.4399 81.1764C72.82 80.2839 73.1356 79.366 73.5433 78.2752L73.5456 78.2706ZM10.2826 71.5827C10.2826 71.0361 10.2826 70.6648 10.2826 70.2912C10.2826 68.7369 10.2642 67.1825 10.2964 65.6305C10.3125 64.8118 10.8308 64.3667 11.6256 64.3736C12.395 64.3805 12.8418 64.7933 12.9156 65.5797C12.9432 65.8657 12.934 66.154 12.934 66.4422C12.934 70.6141 12.934 74.786 12.9386 78.9578C12.9386 79.3291 12.9524 79.712 13.0422 80.0694C13.2427 80.8697 13.9614 81.3724 14.7699 81.3355C15.537 81.3009 16.1936 80.7636 16.3525 79.991C16.4216 79.6566 16.4285 79.3061 16.4285 78.9625C16.4354 76.6609 16.4216 74.3593 16.44 72.0578C16.4469 71.0384 16.933 70.508 17.7761 70.5149C18.6238 70.5219 19.0914 71.0569 19.096 72.0762C19.1053 74.982 19.0983 77.8878 19.0983 80.7936C19.0983 81.4255 19.0753 82.062 19.1076 82.6915C19.1606 83.7109 19.9392 84.4535 20.8836 84.4304C21.8074 84.4073 22.5053 83.6901 22.5606 82.6938C22.5744 82.4356 22.5675 82.175 22.5675 81.9167C22.5675 78.665 22.5675 75.4133 22.5675 72.1616C22.5675 71.4928 22.685 70.8862 23.4014 70.6141C24.4104 70.2313 25.2535 70.8609 25.265 72.0532C25.2858 74.5277 25.2604 77.0022 25.2789 79.4767C25.2881 80.6045 25.9906 81.3355 26.995 81.3378C27.9855 81.3378 28.695 80.586 28.7411 79.4837C28.7503 79.253 28.7434 79.0224 28.7434 78.7941C28.7434 76.5202 28.7319 74.2486 28.7503 71.9748C28.7595 70.8493 29.5957 70.2474 30.584 70.6118C31.2704 70.8655 31.4041 71.4282 31.4041 72.0739C31.4041 73.9442 31.3925 75.8145 31.4087 77.6848C31.4202 78.9348 32.102 79.7304 33.1317 79.7558C34.2098 79.7812 34.8732 78.9994 34.9032 77.6664C34.9032 77.5811 34.9032 77.4934 34.9032 77.4081C34.9032 71.7395 34.9078 66.0709 34.8963 60.4024C34.8963 59.9481 34.8364 59.4799 34.7166 59.044C33.938 56.1913 33.1156 53.3478 32.3508 50.4904C32.1757 49.8332 31.9177 49.5841 31.1875 49.5887C25.3825 49.6256 19.5775 49.6095 13.7725 49.6095C13.4915 49.6095 13.2127 49.6095 12.8303 49.6095C12.8303 50.5089 12.7865 51.3091 12.8418 52.1048C12.9132 53.1471 12.6414 54.0581 12.1393 54.9736C10.5222 57.9209 8.96492 60.8982 7.40079 63.8732C7.23263 64.1937 7.07831 64.565 7.0714 64.9155C7.03684 66.5552 7.04145 68.1949 7.0714 69.8346C7.076 70.0606 7.24876 70.4042 7.43305 70.485C8.31992 70.8724 9.23675 71.186 10.2895 71.5827H10.2826ZM39.3997 12.4685C36.4673 11.6475 33.5763 10.8081 30.6646 10.0424C29.7892 9.81182 28.8609 9.70112 27.9556 9.69651C22.5261 9.66653 17.0965 9.67806 11.6647 9.68728C11.2685 9.68728 10.8515 9.71496 10.4807 9.83488C9.7251 10.0816 9.28742 10.8173 9.35883 11.583C9.43255 12.3809 10.0384 13.0243 10.8493 13.1304C11.1602 13.1719 11.4804 13.1673 11.796 13.1673C13.5191 13.1696 15.2468 13.1235 16.9652 13.1996C17.4444 13.2203 18.0779 13.4694 18.3474 13.8338C19.0108 14.7309 18.2783 15.8471 17.0666 15.8563C14.6525 15.8771 12.2406 15.8563 9.82646 15.8655C8.55259 15.8678 7.70257 16.592 7.73022 17.6344C7.75556 18.6468 8.58485 19.3317 9.81266 19.334C12.2268 19.3409 14.6386 19.3294 17.0528 19.3409C18.0065 19.3455 18.5363 19.816 18.5639 20.6278C18.5916 21.4419 18.0848 21.9515 17.1518 22.0276C16.8938 22.0484 16.6358 22.0368 16.3755 22.0368C13.0999 22.0368 9.82416 22.0276 6.54848 22.0438C5.43586 22.0484 4.66186 22.7702 4.64803 23.7388C4.63421 24.6982 5.41283 25.45 6.50242 25.5099C6.8756 25.5307 7.24878 25.5146 7.62196 25.5146C10.7825 25.5146 13.9429 25.5076 17.1034 25.5215C18.1285 25.5261 18.7298 26.2041 18.5386 27.1035C18.375 27.8715 17.8498 28.1713 17.0896 28.169C14.7054 28.1597 12.3212 28.1505 9.93472 28.1828C9.4648 28.1897 8.9373 28.2727 8.54338 28.5034C7.86844 28.8954 7.5828 29.5596 7.79703 30.3529C8.01817 31.1716 8.64705 31.6375 9.60994 31.6421C12.8557 31.6559 16.1037 31.649 19.3494 31.649C20.6141 31.649 21.8788 31.6444 23.1411 31.6536C23.7401 31.6582 24.2952 31.7827 24.5809 32.3985C25.0347 33.3763 24.4127 34.3265 23.2701 34.3403C21.4342 34.3657 19.5982 34.3472 17.6448 34.3472C17.9811 35.2628 18.3105 36.0815 18.5754 36.9209C18.7321 37.4144 18.997 37.5828 19.5107 37.5712C21.0034 37.5413 22.4984 37.5897 23.9911 37.5436C24.4542 37.5297 24.9586 37.4006 25.3664 37.1815C28.4716 35.5003 31.5492 33.7707 34.6567 32.0964C35.1381 31.8358 35.7301 31.7043 36.283 31.6697C37.3035 31.6029 38.3309 31.6513 39.3928 31.6513V12.4708L39.3997 12.4685ZM56.9668 39.0218C63.3224 39.0218 69.5259 39.0287 75.7317 38.9965C75.9529 38.9965 76.2984 38.6644 76.3698 38.4245C76.9319 36.5542 77.3857 34.6493 77.9846 32.7928C78.7241 30.5005 79.0143 28.2013 78.9613 25.7729C78.8738 21.7786 79.0926 17.7773 79.1456 13.7784C79.1548 13.0382 79.0627 12.2817 78.8991 11.5599C78.7217 10.7735 78.1412 10.363 77.3166 10.3653C76.508 10.3676 75.8124 10.9119 75.635 11.7098C75.5613 12.0419 75.5544 12.3947 75.5521 12.7384C75.5405 14.0321 75.5705 15.3282 75.5336 16.622C75.506 17.6067 74.8771 18.1164 73.9511 17.9526C73.1563 17.8142 72.8868 17.2654 72.8891 16.5159C72.8937 14.5303 72.9052 12.5446 72.8799 10.559C72.8684 9.62502 72.2349 8.91472 71.4125 8.79249C70.5855 8.67026 69.7516 9.15456 69.5167 9.94558C69.4199 10.2684 69.4245 10.6282 69.4222 10.9695C69.413 12.8122 69.4361 14.6525 69.4107 16.4951C69.3946 17.579 68.7265 18.1486 67.7544 17.9457C66.9136 17.7704 66.7155 17.1385 66.7155 16.3844C66.7155 13.564 66.7178 10.7435 66.7109 7.92306C66.7109 7.57944 66.7155 7.22198 66.6257 6.89681C66.4046 6.10118 65.5591 5.5823 64.7552 5.6953C63.8983 5.81522 63.2579 6.55089 63.2533 7.52409C63.2348 10.3722 63.2463 13.2227 63.244 16.0708C63.244 16.3291 63.2648 16.592 63.2256 16.8457C63.1127 17.5744 62.6774 17.9641 61.9333 17.9688C61.2008 17.9734 60.7239 17.639 60.618 16.8872C60.5742 16.5758 60.5811 16.2553 60.5788 15.9393C60.5742 14.1543 60.5857 12.3717 60.565 10.5867C60.5558 9.71957 60.1296 9.10152 59.2934 8.83169C58.5494 8.59185 57.6072 8.9101 57.2663 9.59043C57.059 10.0032 56.9852 10.5221 56.9829 10.9949C56.9599 14.7355 56.9714 18.4761 56.9691 22.219C56.9691 22.535 56.9714 22.8555 56.9253 23.1646C56.8171 23.9072 56.3333 24.2808 55.6192 24.2808C54.9005 24.2808 54.426 23.8979 54.3039 23.1669C54.2578 22.8855 54.2785 22.5926 54.2785 22.3044C54.2785 20.5909 54.2785 18.8751 54.2785 17.074C53.3686 17.4084 52.5739 17.7289 51.7584 17.9895C51.2447 18.1533 51.0397 18.4162 51.0558 18.9789C51.0973 20.4733 51.0443 21.9723 51.0835 23.4667C51.095 23.9072 51.2056 24.3868 51.4106 24.772C52.8549 27.4863 54.2993 30.2007 55.8242 32.869C56.619 34.2596 57.135 35.664 56.9714 37.2876C56.9161 37.8226 56.9622 38.3692 56.9622 39.0149L56.9668 39.0218ZM54.4098 35.8116C53.9998 35.8116 53.6612 35.8116 53.3226 35.8116C49.3581 35.8116 45.3914 35.8116 41.4269 35.8116C40.0747 35.8116 39.8927 35.6733 39.4458 34.3495C38.6626 34.3495 37.8563 34.3979 37.0593 34.3357C36.2991 34.2757 36.078 34.534 36.0849 35.2974C36.1218 39.3239 36.0872 43.3528 36.1125 47.3817C36.1172 48.3411 36.002 49.1713 34.9009 49.5126C35.1773 50.5204 35.433 51.4544 35.7048 52.4438H36.6838C40.6206 52.4438 44.5574 52.4253 48.4943 52.4668C48.9849 52.4714 49.6921 52.6536 49.9156 52.9995C50.3095 53.6084 50.6665 53.5576 51.1848 53.3501C51.4774 53.2348 51.7769 53.1126 52.0855 53.0641C52.6845 52.9673 52.8411 52.6513 52.8365 52.054C52.8065 48.4287 52.8227 44.8034 52.8227 41.1781C52.8227 39.965 53.3517 39.1471 54.4098 38.7243V35.8116ZM47.6811 55.1604H36.5203C36.6262 55.5617 36.6953 55.8984 36.8013 56.2213C37.4164 58.0962 37.6053 60.0126 37.5776 61.989C37.5131 66.7351 37.5569 71.4812 37.5569 76.2273V77.1567H47.6834V55.1604H47.6811ZM55.6837 52.1393C56.1283 52.0356 56.5176 51.9502 56.9046 51.8557C59.3003 51.2791 61.6684 50.6957 64.1908 50.7695C68.3257 50.8917 72.4652 50.8018 76.6025 50.8018H77.6414V41.637H55.686V52.137L55.6837 52.1393ZM11.2386 46.9112H33.0972V36.0077C32.7148 36.2083 32.4176 36.3559 32.1251 36.515C30.0818 37.6266 28.05 38.7566 25.9907 39.8359C25.5553 40.0642 25.0209 40.2072 24.5302 40.2164C22.3464 40.2556 20.1626 40.2118 17.9788 40.2441C17.0942 40.2579 16.599 39.8797 16.3271 39.0541C15.871 37.6635 15.3804 36.2821 14.8713 34.9099C14.7907 34.6908 14.5373 34.3887 14.3507 34.3772C13.3279 34.3241 12.3028 34.3518 11.2386 34.3518V46.9089V46.9112ZM54.2808 11.0917H42.0627V33.088H52.7536C52.5808 32.7352 52.4518 32.4561 52.3067 32.184C51.1342 29.9793 49.9386 27.7838 48.796 25.5607C48.5703 25.1225 48.4344 24.5875 48.4252 24.0963C48.386 21.94 48.4367 19.7814 48.3952 17.6251C48.3768 16.6612 48.7822 16.1492 49.6783 15.8655C51.0443 15.4343 52.3965 14.95 53.7326 14.4311C53.9698 14.3388 54.2394 13.986 54.2578 13.7369C54.3223 12.8813 54.2831 12.0211 54.2831 11.0941L54.2808 11.0917Z" fill="black"/>
</svg>
