<svg width="116" height="114" viewBox="0 0 116 114" fill="none" xmlns="http://www.w3.org/2000/svg">
<path d="M111.043 93.3548C112.264 97.9061 110.912 100.16 105.888 102.023C105.888 104.483 105.888 106.974 105.888 109.469C105.888 110.435 105.667 111.269 104.602 111.563C103.259 111.932 102.263 111.148 102.235 109.638C102.198 107.531 102.226 105.427 102.223 103.32C102.223 102.895 102.223 102.473 102.223 102.001C101.17 101.714 100.521 101.81 100.184 102.995C99.6966 104.714 99.0253 106.384 98.4321 108.072C97.8981 109.588 97.5016 109.863 95.8561 109.866C93.0116 109.869 90.1671 109.897 87.3257 109.844C86.6575 109.832 85.9331 109.647 85.343 109.334C81.4556 107.278 77.5994 105.168 73.7308 103.073C73.3936 102.892 73.0501 102.72 72.4974 102.436C72.4974 103.452 72.4974 104.317 72.4974 105.186C72.4974 106.631 72.5006 108.072 72.4974 109.516C72.4912 111.116 71.9292 111.823 70.6771 111.813C69.425 111.807 68.9005 111.135 68.8911 109.481C68.8786 107.453 68.888 105.424 68.888 103.398C68.888 103.014 68.888 102.626 68.888 102.135H65.5876C64.9007 103.933 64.7321 104.049 62.6931 104.049C58.0189 104.049 53.3447 104.033 48.6705 104.077C48.2239 104.08 47.5963 104.336 47.3653 104.683C45.5199 107.431 42.6661 108.359 39.628 107.103C39.4188 107.015 39.2064 106.937 39.0097 106.862C36.3089 109.807 34.8694 110.285 31.2037 109.435C30.2608 112.317 28.3312 114.061 25.2088 113.998C22.2519 113.939 20.4159 112.232 19.5354 109.478C14.3896 110.304 12.2009 108.991 10.9238 104.233C9.33762 104.233 7.70773 104.264 6.08096 104.224C4.76019 104.189 4.09513 103.458 4.17631 102.245C4.245 101.216 4.88198 100.619 6.056 100.591C7.64842 100.557 9.24396 100.582 11.0144 100.582C11.0144 99.2972 11.0581 98.0655 10.98 96.8371C10.9644 96.587 10.5398 96.2588 10.2369 96.1462C8.37594 95.4585 6.50563 94.8021 4.62283 94.18C3.50501 93.808 2.94609 93.1078 3.05538 91.9137C3.0585 91.8762 3.05538 91.8356 3.05538 91.7981C3.06475 88.5627 2.49959 85.1836 3.24897 82.1265C3.98585 79.1162 6.04975 76.4342 7.53288 73.6083C8.0512 72.6174 8.57576 71.6296 9.20648 70.4355C8.17922 70.4355 7.33928 70.4418 6.49935 70.4355C4.86009 70.423 4.17942 69.8979 4.17006 68.6538C4.16069 67.4003 4.8601 66.8407 6.46188 66.8313C7.8576 66.8251 9.25333 66.8313 10.7396 66.8313V63.1771C8.91299 62.4113 8.8724 62.3582 8.8724 60.3482C8.8724 54.7309 8.85989 49.1168 8.88487 43.4995C8.88799 42.718 8.74127 42.2991 7.90134 41.9928C5.05684 40.9612 3.58617 37.9635 4.32618 34.9626C4.40111 34.6625 4.49166 34.3687 4.5947 34.0092C1.63467 33.0245 -0.0607813 31.0896 0.00166659 27.8824C0.0547473 25.2879 1.42236 23.6155 4.57286 22.262C3.58306 19.0892 4.33556 16.454 7.11137 14.5597C6.86158 13.7438 6.53994 13.0186 6.42129 12.2621C6.08095 10.1053 6.70855 8.27972 8.37279 6.79804C8.71938 6.48857 8.97543 5.92278 9.0129 5.45077C9.10657 4.32856 9.02226 3.19072 9.05036 2.05914C9.08471 0.693114 9.7498 -0.0195965 10.902 0.0116627C12.0135 0.0429219 12.6255 0.743128 12.6474 2.04664C12.6661 3.05944 12.6505 4.07223 12.6505 5.27259C13.1032 5.27259 13.5091 5.27259 13.9182 5.27259C21.006 5.25696 28.097 5.16631 35.1848 5.27259C37.5984 5.30697 40.0058 5.83838 42.5724 6.16035C42.5724 4.96312 42.5724 3.50957 42.5724 2.05914C42.5724 1.17138 42.8222 0.436788 43.7527 0.124196C45.0672 -0.316559 46.1444 0.446166 46.1975 1.93098C46.2537 3.52832 46.2724 5.13192 46.1975 6.72614C46.1569 7.6139 46.4879 7.95463 47.3122 8.12343C48.4862 8.36412 49.6353 8.72986 50.8873 9.06433C51.3276 7.6014 52.4204 7.39821 53.7412 7.40759C59.3896 7.44823 65.0381 7.41384 70.6865 7.43572C71.4015 7.43572 71.8636 7.27318 72.3257 6.64799C74.0961 4.25041 76.4816 3.68149 79.3324 4.61614C80.2941 1.71529 82.2206 -0.0321003 85.3305 0.0272922C88.2874 0.0866847 90.1296 1.78093 91.0382 4.62552C94.2668 3.56896 96.8709 4.40358 98.8005 7.19815C101.102 6.18848 103.334 5.96654 105.548 7.31381C105.813 7.47636 106.232 7.41697 106.578 7.42009C109.033 7.42947 111.487 7.40759 113.941 7.4326C115.274 7.4451 115.949 8.05153 115.992 9.16748C116.039 10.3616 115.359 11.0618 114.013 11.0868C112.074 11.1212 110.132 11.0962 108.43 11.0962C108.293 16.6541 108.158 22.0932 108.024 27.5291C108.018 27.8417 108.03 28.1543 108.024 28.4638C107.946 32.6338 108.87 36.8913 106.519 41.055C108.146 41.055 109.37 41.055 110.594 41.055C111.88 41.0581 113.167 41.0175 114.45 41.0925C115.543 41.155 116.127 42.0147 115.977 43.1525C115.846 44.1528 115.149 44.5779 114.085 44.5529C111.321 44.4841 108.558 44.4779 105.795 44.5123C105.514 44.5154 105.089 44.9218 104.986 45.2281C104.63 46.294 104.39 47.3975 104.065 48.6385C105.676 49.0636 105.714 50.314 105.698 51.68C105.654 55.8125 105.698 59.9481 105.667 64.0837C105.66 64.8151 105.829 65.2496 106.51 65.656C108.976 67.1189 109.922 70.0323 108.923 72.7894C108.792 73.1488 108.63 73.4958 108.489 73.8303C111.452 76.5717 111.936 78.0284 111.072 81.6638C113.988 82.6204 115.74 84.596 115.63 87.7594C115.53 90.654 113.85 92.4795 111.04 93.361L111.043 93.3548ZM96.977 102.026C96.312 102.026 95.8936 102.026 95.4752 102.026C93.2926 102.02 91.1132 102.048 88.9306 101.995C87.7941 101.967 87.2008 101.279 87.2102 100.204C87.2196 99.1534 87.8597 98.5001 88.965 98.4282C89.2741 98.4094 89.5895 98.4188 89.8986 98.4188C94.9631 98.4188 100.028 98.4188 105.089 98.4188C105.476 98.4188 105.876 98.4344 106.254 98.3625C107.425 98.1343 108.283 97.0559 108.224 95.943C108.158 94.7489 107.187 93.7549 105.926 93.7361C103.237 93.6955 100.549 93.7424 97.8638 93.708C96.1777 93.6861 95.291 92.5077 95.8717 91.1198C96.2714 90.1664 97.1019 90.0413 98.0043 90.0413C101.976 90.0476 105.951 90.0569 109.923 90.0319C111.212 90.0257 112.111 89.2536 112.342 88.0876C112.545 87.0654 111.933 85.8838 110.853 85.4431C110.332 85.2305 109.723 85.1586 109.151 85.1555C105.373 85.1305 101.595 85.1367 97.817 85.1461C96.9864 85.1461 96.2589 84.9836 95.8842 84.1396C95.3065 82.8361 96.1028 81.5857 97.5828 81.5607C100.037 81.5232 102.491 81.5482 104.945 81.5451C105.336 81.5451 105.729 81.5607 106.11 81.4982C107.365 81.2981 108.268 80.2478 108.224 79.085C108.177 77.8909 107.25 76.8843 105.951 76.8499C103.266 76.7812 100.577 76.8187 97.8888 76.803C96.2714 76.7937 95.572 76.2404 95.5626 75.0025C95.5564 73.7521 96.2683 73.1801 97.8544 73.1738C99.8028 73.1676 101.751 73.202 103.696 73.152C105.033 73.1176 106.004 72.0985 106.026 70.8482C106.048 69.554 105.039 68.5443 103.65 68.4725C103.337 68.4568 103.025 68.4662 102.716 68.4662C97.4953 68.4662 92.2747 68.5662 87.0572 68.4349C82.9356 68.3318 78.9265 68.7257 74.961 69.876C71.8355 70.7825 68.6507 71.4765 65.5064 72.2611V98.4219C66.5274 98.4219 67.4985 98.5032 68.4539 98.4063C71.2891 98.1218 73.7995 98.9252 76.2381 100.329C79.6446 102.289 83.1323 104.105 86.5951 105.965C86.9916 106.177 87.4568 106.371 87.894 106.38C90.1515 106.421 92.4121 106.415 94.6727 106.38C94.9537 106.377 95.3877 106.184 95.4783 105.965C95.9935 104.755 96.4212 103.511 96.9739 102.032L96.977 102.026ZM11.2267 92.9609C11.2267 92.2201 11.2267 91.7168 11.2267 91.2104C11.2267 89.1035 11.2017 86.9967 11.2454 84.8929C11.2673 83.7832 11.9698 83.1799 13.047 83.1893C14.0899 83.1987 14.6957 83.7582 14.7956 84.8241C14.833 85.2118 14.8205 85.6025 14.8205 85.9932C14.8205 91.648 14.8206 97.3028 14.8268 102.958C14.8268 103.461 14.8455 103.98 14.9673 104.464C15.2389 105.549 16.2131 106.23 17.3091 106.18C18.3488 106.134 19.2388 105.405 19.4542 104.358C19.5479 103.905 19.5572 103.43 19.5572 102.964C19.5666 99.8442 19.5478 96.7245 19.5728 93.6049C19.5822 92.2232 20.241 91.5042 21.3838 91.5136C22.5329 91.523 23.1667 92.2482 23.173 93.6299C23.1854 97.5685 23.1761 101.507 23.1761 105.446C23.1761 106.302 23.1449 107.165 23.1886 108.018C23.2604 109.4 24.3158 110.407 25.5959 110.375C26.848 110.344 27.7941 109.372 27.8691 108.022C27.8878 107.672 27.8784 107.318 27.8784 106.968C27.8784 102.561 27.8784 98.1531 27.8784 93.7455C27.8784 92.839 28.0377 92.0169 29.0087 91.648C30.3763 91.1291 31.5191 91.9825 31.5347 93.5986C31.5628 96.9527 31.5285 100.307 31.5535 103.661C31.566 105.19 32.5183 106.18 33.8797 106.184C35.2223 106.184 36.184 105.165 36.2464 103.67C36.2589 103.358 36.2495 103.045 36.2495 102.736C36.2495 99.6535 36.2339 96.5745 36.2589 93.4923C36.2714 91.9669 37.4048 91.151 38.7443 91.6449C39.6748 91.9888 39.8559 92.7515 39.8559 93.6267C39.8559 96.1619 39.8403 98.697 39.8622 101.232C39.8778 102.926 40.802 104.005 42.1977 104.039C43.659 104.074 44.5582 103.014 44.5988 101.207C44.5988 101.091 44.5988 100.973 44.5988 100.857C44.5988 93.1735 44.6051 85.49 44.5895 77.8065C44.5895 77.1907 44.5083 76.5561 44.3459 75.9653C43.2906 72.0985 42.1759 68.2443 41.1392 64.3712C40.9019 63.4804 40.5522 63.1428 39.5624 63.149C31.694 63.199 23.8255 63.1771 15.9571 63.1771C15.5762 63.1771 15.1984 63.1771 14.6801 63.1771C14.6801 64.3963 14.6207 65.4809 14.6956 66.5594C14.7924 67.9723 14.424 69.207 13.7433 70.448C11.5514 74.443 9.44065 78.4785 7.32054 82.511C7.09261 82.9455 6.88343 83.4487 6.87406 83.9239C6.82723 86.1464 6.83347 88.3689 6.87406 90.5915C6.88031 90.8978 7.11447 91.3636 7.36426 91.473C8.56638 91.9981 9.80911 92.4233 11.236 92.9609H11.2267ZM50.6938 12.8342C46.7189 11.7214 42.8003 10.5835 38.8536 9.54572C37.6671 9.23313 36.4088 9.08308 35.1817 9.07683C27.8222 9.0362 20.4627 9.05182 13.1001 9.06433C12.563 9.06433 11.9979 9.10184 11.4952 9.26439C10.471 9.59886 9.87779 10.596 9.97458 11.6338C10.0745 12.7154 10.8957 13.5875 11.9948 13.7313C12.4163 13.7876 12.8503 13.7813 13.2781 13.7813C15.6137 13.7845 17.9554 13.722 20.2847 13.8251C20.9342 13.8532 21.7929 14.1908 22.1582 14.6847C23.0574 15.9007 22.0645 17.4137 20.4221 17.4262C17.1499 17.4543 13.8807 17.4262 10.6084 17.4387C8.88175 17.4418 7.72959 18.4233 7.76706 19.8363C7.80141 21.2085 8.92548 22.1369 10.5897 22.1401C13.862 22.1494 17.1311 22.1338 20.4034 22.1494C21.6961 22.1557 22.4142 22.7934 22.4517 23.8937C22.4892 24.9971 21.8022 25.688 20.5377 25.7911C20.188 25.8193 19.8383 25.8036 19.4854 25.8036C15.0454 25.8036 10.6053 25.7911 6.16527 25.813C4.65716 25.8193 3.60803 26.7977 3.5893 28.1106C3.57056 29.4109 4.62595 30.43 6.10284 30.5113C6.60867 30.5394 7.11449 30.5175 7.62032 30.5175C11.9042 30.5175 16.1881 30.5081 20.4721 30.5269C21.8615 30.5332 22.6765 31.4522 22.4174 32.6713C22.1957 33.7122 21.4838 34.1186 20.4534 34.1155C17.2217 34.103 13.99 34.0905 10.7552 34.1342C10.1182 34.1436 9.40321 34.2561 8.86928 34.5687C7.95442 35.1001 7.56724 36.0004 7.85763 37.0757C8.15738 38.1854 9.00979 38.8168 10.3149 38.8231C14.7144 38.8419 19.117 38.8325 23.5164 38.8325C25.2306 38.8325 26.9448 38.8262 28.6559 38.8387C29.4677 38.845 30.2202 39.0138 30.6074 39.8484C31.2225 41.1738 30.3794 42.4617 28.8307 42.4804C26.3422 42.5148 23.8537 42.4898 21.2059 42.4898C21.6617 43.7308 22.1082 44.8405 22.4673 45.9783C22.6796 46.6473 23.0387 46.8755 23.735 46.8598C25.7583 46.8192 27.7847 46.8848 29.808 46.8223C30.4356 46.8036 31.1194 46.6285 31.6721 46.3316C35.8811 44.0528 40.0526 41.7083 44.2648 39.4389C44.9173 39.0857 45.7198 38.9075 46.4691 38.8606C47.8524 38.77 49.245 38.8356 50.6844 38.8356V12.8373L50.6938 12.8342ZM74.5051 48.826C83.1198 48.826 91.5284 48.8354 99.9402 48.7917C100.24 48.7917 100.708 48.3415 100.805 48.0164C101.567 45.4813 102.182 42.8993 102.994 40.3829C103.996 37.2758 104.39 34.1592 104.318 30.8676C104.199 25.4535 104.496 20.0301 104.568 14.6097C104.58 13.6063 104.455 12.581 104.233 11.6026C103.993 10.5366 103.206 9.98022 102.088 9.98335C100.992 9.98648 100.049 10.7242 99.8091 11.8058C99.7091 12.2559 99.6998 12.7342 99.6967 13.1999C99.681 14.9536 99.7216 16.7103 99.6717 18.464C99.6342 19.7987 98.7818 20.4896 97.5266 20.2676C96.4493 20.0801 96.084 19.3361 96.0872 18.3202C96.0934 15.6288 96.109 12.9373 96.0746 10.2459C96.059 8.97993 95.2004 8.01715 94.0857 7.85147C92.9647 7.6858 91.8344 8.34224 91.516 9.41443C91.3848 9.85206 91.3911 10.3397 91.3879 10.8023C91.3754 13.3 91.4067 15.7944 91.3723 18.292C91.3505 19.7612 90.445 20.5333 89.1273 20.2583C87.9876 20.0207 87.7191 19.1642 87.7191 18.142C87.7191 14.319 87.7223 10.496 87.7129 6.673C87.7129 6.20724 87.7191 5.72272 87.5974 5.28196C87.2976 4.20352 86.1517 3.50019 85.062 3.65336C83.9005 3.81591 83.0324 4.81308 83.0262 6.13222C83.0012 9.99273 83.0168 13.8564 83.0137 17.7169C83.0137 18.067 83.0418 18.4233 82.9887 18.7672C82.8357 19.755 82.2456 20.2833 81.2371 20.2895C80.2441 20.2958 79.5978 19.8425 79.4541 18.8235C79.3948 18.4015 79.4042 17.967 79.4011 17.5387C79.3948 15.1192 79.4104 12.7029 79.3823 10.2834C79.3698 9.10809 78.7922 8.27034 77.6588 7.90461C76.6502 7.57952 75.3732 8.01089 74.9111 8.93304C74.6301 9.49258 74.5301 10.1959 74.527 10.8367C74.4958 15.907 74.5114 20.9772 74.5083 26.0506C74.5083 26.4788 74.5114 26.9133 74.4489 27.3322C74.3022 28.3388 73.6465 28.8452 72.6786 28.8452C71.7044 28.8452 71.0612 28.3263 70.8957 27.3353C70.8332 26.954 70.8613 26.557 70.8613 26.1662C70.8613 23.8437 70.8613 21.518 70.8613 19.0767C69.628 19.5299 68.5507 19.9644 67.4454 20.3176C66.7491 20.5396 66.4712 20.8959 66.4931 21.6587C66.5493 23.6843 66.4775 25.7161 66.5305 27.7417C66.5462 28.3388 66.696 28.9889 66.9739 29.511C68.9317 33.1902 70.8894 36.8694 72.9565 40.4861C74.0337 42.371 74.7331 44.2747 74.5114 46.4753C74.4365 47.2006 74.4989 47.9414 74.4989 48.8167L74.5051 48.826ZM71.0393 44.4748C70.4835 44.4748 70.0245 44.4748 69.5655 44.4748C64.1919 44.4748 58.8151 44.4748 53.4415 44.4748C51.6086 44.4748 51.362 44.2872 50.7562 42.4929C49.6946 42.4929 48.6017 42.5586 47.5214 42.4742C46.491 42.3929 46.1913 42.743 46.2006 43.7777C46.2506 49.2355 46.2037 54.6965 46.2381 60.1575C46.2443 61.4579 46.0882 62.5832 44.5957 63.0459C44.9704 64.4119 45.317 65.6779 45.6854 67.0189H47.0124C52.3486 67.0189 57.6848 66.9939 63.021 67.0502C63.686 67.0564 64.6446 67.3034 64.9475 67.7722C65.4814 68.5975 65.9654 68.5287 66.6679 68.2474C67.0645 68.0911 67.4704 67.9254 67.8888 67.8598C68.7006 67.7285 68.9129 67.3002 68.9067 66.4906C68.8661 61.5767 68.888 56.6627 68.888 51.7488C68.888 50.1045 69.6051 48.9959 71.0393 48.4228V44.4748ZM61.9188 70.7012H46.7908C46.9344 71.2451 47.0281 71.7015 47.1717 72.1392C48.0054 74.6805 48.2614 77.2782 48.2239 79.9571C48.1365 86.3902 48.1958 92.8234 48.1958 99.2565V100.516H61.9219V70.7012H61.9188ZM72.766 66.6063C73.3686 66.4656 73.8963 66.35 74.4208 66.2218C77.6681 65.4403 80.878 64.6495 84.297 64.7495C89.9017 64.9152 95.5126 64.7932 101.12 64.7932H102.529V52.3708H72.7691V66.6032L72.766 66.6063ZM12.5225 59.5198H42.1509V44.7405C41.6326 45.0124 41.2298 45.2125 40.8332 45.4282C38.0637 46.9349 35.3097 48.4666 32.5183 49.9295C31.9282 50.239 31.2038 50.4328 30.5387 50.4453C27.5787 50.4984 24.6186 50.439 21.6586 50.4828C20.4596 50.5015 19.7883 49.9889 19.4198 48.8698C18.8016 46.9849 18.1365 45.1124 17.4465 43.2525C17.3372 42.9556 16.9937 42.5461 16.7408 42.5304C15.3545 42.4585 13.965 42.4961 12.5225 42.4961V59.5167V59.5198ZM70.8644 10.968H54.3033V40.783H68.7943C68.5601 40.3048 68.3853 39.9265 68.1886 39.5577C66.5993 36.5693 64.9787 33.5934 63.43 30.58C63.124 29.9861 62.9398 29.2609 62.9273 28.5951C62.8742 25.6723 62.9429 22.7465 62.8867 19.8237C62.8617 18.5171 63.4113 17.8232 64.6259 17.4387C66.4775 16.8541 68.3103 16.1977 70.1213 15.4943C70.4429 15.3693 70.8082 14.891 70.8332 14.5534C70.9206 13.3937 70.8676 12.2278 70.8676 10.9711L70.8644 10.968Z" fill="black"/>
</svg>
