<svg width="20" height="20" viewBox="0 0 20 20" fill="none" xmlns="http://www.w3.org/2000/svg">
<path d="M19.9932 10.0619C19.9932 4.50791 15.5214 0 9.99658 0C4.4718 0 0 4.50791 0 10.0619C0 15.086 3.65812 19.2498 8.43761 20V12.9663H5.90086V10.0551H8.43761V7.83895C8.43761 5.32003 9.92821 3.92292 12.212 3.92292C13.306 3.92292 14.4479 4.1225 14.4479 4.1225V6.60014H13.1897C11.9453 6.60014 11.5624 7.37784 11.5624 8.1693V10.0551H14.3385L13.894 12.9663H11.5624V20C16.3419 19.2429 20 15.0791 20 10.0619H19.9932Z" fill="white"/>
</svg>
