<svg width="163" height="166" viewBox="0 0 163 166" fill="none" xmlns="http://www.w3.org/2000/svg">
<g filter="url(#filter0_d_728_1155)">
<path d="M94.1091 101.891C115.588 92.9941 125.788 68.3697 116.891 46.8909C107.994 25.412 83.3697 15.2123 61.8909 24.1091C40.412 33.006 30.2123 57.6303 39.1091 79.1091C48.006 100.588 72.6303 110.788 94.1091 101.891Z" fill="url(#paint0_linear_728_1155)"/>
<path d="M55.248 86.834L58.7608 73.7332C56.7741 70.1341 55.7375 66.1319 55.7375 62.0433C55.7375 48.7122 66.5924 37.8573 79.9235 37.8573C93.2546 37.8573 104.11 48.7122 104.11 62.0433C104.11 75.3744 93.2546 86.2293 79.9235 86.2293C75.9213 86.2293 71.9767 85.2216 68.4352 83.2925L55.2768 86.8052L55.248 86.834ZM69.0686 78.3977L69.9036 78.8871C72.9557 80.7011 76.4108 81.6513 79.9235 81.6513C90.7497 81.6513 99.5315 72.8406 99.5315 62.0433C99.5315 51.246 90.7209 42.4354 79.9235 42.4354C69.1262 42.4354 60.3156 51.246 60.3156 62.0433C60.3156 65.6136 61.2945 69.1264 63.1949 72.2072L63.7132 73.0422L61.7552 80.3556L69.0974 78.3977H69.0686Z" fill="white"/>
<path fill-rule="evenodd" clip-rule="evenodd" d="M88.9068 65.4121C87.8991 64.8075 86.6034 64.1452 85.4517 64.6347C84.5591 65.009 83.9832 66.4199 83.4074 67.1397C83.1194 67.514 82.7451 67.5716 82.2845 67.37C78.9157 66.0168 76.3243 63.7709 74.4528 60.6613C74.1361 60.1718 74.1937 59.7975 74.568 59.3368C75.1438 58.6746 75.8349 57.926 75.9788 57.0334C76.1228 56.1408 75.7197 55.1043 75.3454 54.2981C74.8847 53.2903 74.3376 51.8219 73.3299 51.246C72.3797 50.7278 71.1704 51.0157 70.3354 51.7067C68.8958 52.8872 68.2047 54.7012 68.2335 56.5439C68.2335 57.0622 68.2911 57.5805 68.4351 58.0699C68.723 59.2792 69.2701 60.4022 69.9035 61.4675C70.3642 62.2737 70.8825 63.0511 71.4295 63.7997C73.2435 66.2471 75.4893 68.3778 78.0807 69.9902C79.3764 70.7964 80.7872 71.4874 82.2269 71.9769C83.8393 72.524 85.3077 73.071 87.0641 72.7255C88.9068 72.38 90.7208 71.2283 91.4406 69.4719C91.6709 68.9537 91.7573 68.349 91.6421 67.8019C91.383 66.6502 89.8282 65.988 88.9068 65.4121Z" fill="white"/>
</g>
<defs>
<filter id="filter0_d_728_1155" x="-12" y="-12" width="190" height="190" filterUnits="userSpaceOnUse" color-interpolation-filters="sRGB">
<feFlood flood-opacity="0" result="BackgroundImageFix"/>
<feColorMatrix in="SourceAlpha" type="matrix" values="0 0 0 0 0 0 0 0 0 0 0 0 0 0 0 0 0 0 127 0" result="hardAlpha"/>
<feOffset dx="5" dy="20"/>
<feGaussianBlur stdDeviation="20"/>
<feComposite in2="hardAlpha" operator="out"/>
<feColorMatrix type="matrix" values="0 0 0 0 0 0 0 0 0 0 0 0 0 0 0 0 0 0 0.2 0"/>
<feBlend mode="normal" in2="BackgroundImageFix" result="effect1_dropShadow_728_1155"/>
<feBlend mode="normal" in="SourceGraphic" in2="effect1_dropShadow_728_1155" result="shape"/>
</filter>
<linearGradient id="paint0_linear_728_1155" x1="107.78" y1="33.2308" x2="48.2364" y2="92.7745" gradientUnits="userSpaceOnUse">
<stop stop-color="#40ED60"/>
<stop offset="1" stop-color="#1DCE40"/>
</linearGradient>
</defs>
</svg>
