<svg width="88" height="90" viewBox="0 0 88 90" fill="none" xmlns="http://www.w3.org/2000/svg">
<g filter="url(#filter0_d_960_24912)">
<path d="M71 41C71 55.3594 59.3594 67 45 67C30.6406 67 19 55.3594 19 41C19 26.6406 30.6406 15 45 15C59.3594 15 71 26.6406 71 41Z" fill="#3BE059"/>
</g>
<path fill-rule="evenodd" clip-rule="evenodd" d="M51.4493 43.7207C51.0969 43.5444 49.3647 42.6923 49.0416 42.5748C48.7187 42.4572 48.4839 42.3984 48.249 42.7511C48.0141 43.1037 47.3388 43.897 47.1333 44.1321C46.9278 44.3672 46.7223 44.3966 46.3699 44.2202C46.0176 44.044 44.8823 43.672 43.5365 42.472C42.4891 41.5381 41.782 40.3845 41.5764 40.0319C41.3709 39.6793 41.5545 39.4887 41.731 39.3131C41.8894 39.1553 42.0833 38.9017 42.2594 38.696C42.4356 38.4903 42.4943 38.3434 42.6118 38.1084C42.7292 37.8733 42.6705 37.6676 42.5824 37.4913C42.4943 37.315 41.7897 35.5813 41.4961 34.8761C41.2101 34.1892 40.9196 34.2822 40.7033 34.2714C40.498 34.2612 40.2629 34.259 40.028 34.259C39.7931 34.259 39.4115 34.3472 39.0885 34.6997C38.7655 35.0524 37.8553 35.9046 37.8553 37.6382C37.8553 39.3719 39.1178 41.0468 39.294 41.2819C39.4702 41.517 41.7785 45.0747 45.313 46.6004C46.1536 46.9633 46.8099 47.18 47.3216 47.3424C48.1656 47.6104 48.9337 47.5726 49.5408 47.4819C50.2177 47.3808 51.6254 46.6298 51.9191 45.807C52.2126 44.9843 52.2126 44.279 52.1246 44.1321C52.0365 43.9852 51.8016 43.897 51.4493 43.7207ZM45.0204 52.4959H45.0156C42.9125 52.4951 40.8498 51.9303 39.0504 50.8628L38.6224 50.6088L34.1865 51.7721L35.3705 47.4485L35.0918 47.0053C33.9186 45.1398 33.299 42.9836 33.2999 40.7698C33.3024 34.3097 38.5602 29.054 45.0251 29.054C48.1555 29.0552 51.0982 30.2756 53.3111 32.4902C55.5239 34.7048 56.7419 37.6486 56.7406 40.7793C56.738 47.2398 51.4803 52.4959 45.0204 52.4959ZM54.9952 30.8073C52.3329 28.1428 48.7924 26.6747 45.0202 26.6732C37.2479 26.6732 30.9222 32.9965 30.919 40.7689C30.918 43.2534 31.5673 45.6786 32.8013 47.8163L30.8008 55.1211L38.276 53.1609C40.3356 54.2839 42.6545 54.8757 45.0146 54.8767H45.0204H45.0204C52.792 54.8767 59.1183 48.5526 59.1215 40.7801C59.1229 37.0135 57.6576 33.4718 54.9952 30.8073Z" fill="white"/>
<defs>
<filter id="filter0_d_960_24912" x="0.53088" y="0.419116" width="88.9382" height="88.9382" filterUnits="userSpaceOnUse" color-interpolation-filters="sRGB">
<feFlood flood-opacity="0" result="BackgroundImageFix"/>
<feColorMatrix in="SourceAlpha" type="matrix" values="0 0 0 0 0 0 0 0 0 0 0 0 0 0 0 0 0 0 127 0" result="hardAlpha"/>
<feOffset dy="3.88824"/>
<feGaussianBlur stdDeviation="9.23456"/>
<feColorMatrix type="matrix" values="0 0 0 0 0.0705882 0 0 0 0 0.54902 0 0 0 0 0.494118 0 0 0 0.16 0"/>
<feBlend mode="normal" in2="BackgroundImageFix" result="effect1_dropShadow_960_24912"/>
<feBlend mode="normal" in="SourceGraphic" in2="effect1_dropShadow_960_24912" result="shape"/>
</filter>
</defs>
</svg>
