<svg width="27" height="34" viewBox="0 0 27 34" fill="none" xmlns="http://www.w3.org/2000/svg">
<path d="M19.3462 10.7847H22.4038C23.2148 10.7847 23.9925 11.1068 24.566 11.6802C25.1394 12.2537 25.4615 13.0314 25.4615 13.8424V29.7424C25.4615 30.5533 25.1394 31.331 24.566 31.9045C23.9925 32.4779 23.2148 32.8001 22.4038 32.8001H4.05769C3.24674 32.8001 2.46901 32.4779 1.89558 31.9045C1.32215 31.331 1 30.5533 1 29.7424V13.8424C1 13.0314 1.32215 12.2537 1.89558 11.6802C2.46901 11.1068 3.24674 10.7847 4.05769 10.7847H7.11539" stroke="black" stroke-width="1.5" stroke-linecap="round" stroke-linejoin="round"/>
<path d="M7.11523 18.1231L13.2306 24.2385L19.346 18.1231M13.2306 1V23.0154" stroke="black" stroke-width="1.5" stroke-linecap="round" stroke-linejoin="round"/>
</svg>
