<svg width="20" height="20" viewBox="0 0 20 20" fill="none" xmlns="http://www.w3.org/2000/svg">
<path d="M15.2034 3.55371C14.5571 3.55371 14.043 4.08235 14.043 4.71377C14.043 5.34519 14.5718 5.87383 15.2034 5.87383C15.8351 5.87383 16.3639 5.34519 16.3639 4.71377C16.3639 4.08235 15.8351 3.55371 15.2034 3.55371Z" fill="white"/>
<path d="M10.0326 5.05127C7.32981 5.05127 5.14111 7.25391 5.14111 9.94114C5.14111 12.6284 7.3445 14.831 10.0326 14.831C12.7208 14.831 14.9242 12.6284 14.9242 9.94114C14.9242 7.25391 12.7208 5.05127 10.0326 5.05127ZM10.0326 13.0836C8.2993 13.0836 6.88913 11.6739 6.88913 9.94114C6.88913 8.20839 8.2993 6.7987 10.0326 6.7987C11.766 6.7987 13.1761 8.20839 13.1761 9.94114C13.1761 11.6739 11.766 13.0836 10.0326 13.0836Z" fill="white"/>
<path d="M13.9107 19.8825H5.97853C2.68814 19.8825 0 17.21 0 13.906V5.97651C0 2.68722 2.68814 0 5.97853 0H13.9107C17.2011 0 19.8893 2.67254 19.8893 5.97651V13.906C19.8893 17.1953 17.2158 19.8825 13.9107 19.8825ZM5.97853 1.87959C3.71638 1.87959 1.88022 3.71513 1.88022 5.97651V13.906C1.88022 16.1674 3.71638 18.0029 5.97853 18.0029H13.9107C16.1729 18.0029 18.009 16.1674 18.009 13.906V5.97651C18.009 3.71513 16.1729 1.87959 13.9107 1.87959H5.97853Z" fill="white"/>
</svg>
