<svg width="18" height="21" viewBox="0 0 18 21" fill="none" xmlns="http://www.w3.org/2000/svg">
<path d="M17 8.11611C16.9614 9.35504 16.5808 10.5038 16.0489 11.6136C15.172 13.4431 13.9702 15.0874 12.6588 16.6615C11.9168 17.5529 11.1383 18.4188 10.3527 19.2779C9.95886 19.7099 9.49805 20.0545 8.81697 19.9928C8.30439 19.9463 7.94711 19.6624 7.64058 19.3349C5.62984 17.1893 3.76222 14.945 2.30263 12.4282C1.97579 11.8652 1.66419 11.2832 1.44697 10.6785C0.726315 8.67529 0.856237 6.69963 1.98899 4.86734C3.70334 2.0923 6.33121 0.795454 9.7518 1.02615C13.1267 1.254 16.0246 3.61226 16.7787 6.6721C16.8955 7.14394 16.9279 7.63382 16.999 8.11516L17 8.11611ZM9.00171 11.8386C11.0307 11.8396 12.6304 10.349 12.6344 8.45408C12.6375 6.55533 11.0459 5.05721 9.02099 5.05246C6.9798 5.04772 5.37608 6.54204 5.37811 8.44649C5.37913 10.3433 6.97574 11.8367 9.00272 11.8377L9.00171 11.8386Z" stroke="white" stroke-width="0.75" stroke-miterlimit="10"/>
</svg>
