<svg width="118" height="33" viewBox="0 0 118 33" fill="none" xmlns="http://www.w3.org/2000/svg">
<path d="M35.5633 9.75684H28.7074V31.5001H35.5633V9.75684Z" fill="white"/>
<path d="M0 31.5318V0.198242H24.3931V6.25095H7.19139V13.371H23.2148V19.4686H7.19139V31.5291H0V31.5318Z" fill="white"/>
<path d="M35.5633 0.166504H28.7074V6.2377H35.5633V0.166504Z" fill="white"/>
<path d="M41.1034 31.5318C41.1457 28.3773 41.1457 26.6943 41.1457 24.2981V0.198242H48.0015V12.1425C49.0953 10.8374 51.0715 9.19936 55.1929 9.19936C61.1241 9.19936 65.7924 13.7831 65.7924 20.2189C65.7924 27.7062 60.8731 32.1209 54.7728 32.1209C51.0266 32.1209 49.1508 30.895 48.0781 29.545C47.9672 29.405 47.7453 29.4763 47.74 29.6533L47.6977 31.5291H41.1034V31.5318ZM58.7252 20.5545C58.7252 17.4845 57.1268 14.5414 53.3409 14.5414C49.555 14.5414 47.8324 16.9799 47.8324 20.639C47.8324 24.0867 49.6818 26.6943 53.259 26.6943C56.8362 26.6943 58.7252 23.9599 58.7252 20.5545Z" fill="white"/>
<path d="M95.4114 31.5319V15.2971C95.4114 13.4451 95.4114 11.3448 95.3691 9.78866H102.072L102.304 12.5548C103.324 11.0489 105.303 9.20215 109.504 9.20215C114.846 9.20215 118 12.5257 118 18.1187V31.5345H111.062V19.2125C111.062 16.7317 110.095 14.5442 107.025 14.5442C103.786 14.5442 102.315 16.774 102.315 20.6841V31.5345H95.4167L95.4114 31.5319Z" fill="white"/>
<path d="M80.5398 9.18604C74.207 9.18604 69.0737 14.3193 69.0737 20.6521C69.0737 26.9848 74.207 32.1182 80.5398 32.1182C86.8725 32.1182 92.0058 26.9848 92.0058 20.6521C92.0058 14.3193 86.8725 9.18604 80.5398 9.18604ZM80.5398 26.3376C77.4012 26.3376 74.8543 23.7934 74.8543 20.6521C74.8543 17.5108 77.3985 14.9666 80.5398 14.9666C83.6811 14.9666 86.2253 17.5108 86.2253 20.6521C86.2253 23.7934 83.6811 26.3376 80.5398 26.3376Z" fill="white"/>
</svg>
