<svg width="19" height="19" viewBox="0 0 19 19" fill="none" xmlns="http://www.w3.org/2000/svg">
<path d="M1.01503 5.25799C0.884963 3.72963 1.61092 2.48703 2.7409 1.4334C3.36261 0.853577 4.53963 0.849889 5.22777 1.45644C5.98416 2.12199 6.71473 2.82165 7.41485 3.54619C8.09284 4.24677 8.06055 5.47278 7.3881 6.19456C7.04957 6.55867 6.7055 6.92186 6.33099 7.24726C6.06626 7.47772 6.05057 7.71094 6.14097 8.01698C6.60772 9.58959 7.55414 10.8331 8.87137 11.7623C9.52445 12.2232 10.3048 12.5062 11.0326 12.8583C11.2854 12.98 11.4938 12.9063 11.6894 12.6878C12.0122 12.3283 12.3637 11.9946 12.7105 11.6572C13.4964 10.894 14.7297 10.8838 15.5129 11.6452C16.1669 12.2804 16.8126 12.9256 17.4463 13.582C18.211 14.3738 18.1796 15.6634 17.3771 16.4138C15.9206 17.7771 14.1809 18.179 12.2382 17.9311C10.9598 17.7679 9.80302 17.3107 8.77451 16.5539C6.24059 14.6881 4.012 12.5173 2.3092 9.85231C1.43565 8.48526 0.966138 6.98363 1.01318 5.25892L1.01503 5.25799Z" stroke="white" stroke-width="0.75" stroke-miterlimit="10"/>
</svg>
