<svg width="19" height="20" viewBox="0 0 19 20" fill="none" xmlns="http://www.w3.org/2000/svg">
<path fill-rule="evenodd" clip-rule="evenodd" d="M13.3078 11.2943C12.9081 11.0548 12.3881 10.7886 11.9178 10.9813C11.5562 11.1292 11.3263 11.6949 11.0916 11.9831C10.9714 12.1309 10.8283 12.1548 10.6442 12.0804C9.28852 11.5404 8.2496 10.635 7.50165 9.38812C7.37476 9.19446 7.39766 9.04182 7.5503 8.86151C7.7764 8.59534 8.05975 8.29291 8.1208 7.9342C8.18186 7.57549 8.01395 7.15668 7.86512 6.83708C7.67527 6.42876 7.46348 5.84681 7.05516 5.61594C6.67928 5.40415 6.18414 5.52244 5.84928 5.79529C5.27115 6.26562 4.99258 7.00308 5.00117 7.73386C5.00308 7.94183 5.02883 8.14886 5.07748 8.3492C5.19387 8.83098 5.41712 9.28127 5.66803 9.70963C5.85692 10.0321 6.06203 10.345 6.28432 10.6465C7.00937 11.632 7.91187 12.4877 8.95652 13.1279C9.47837 13.4475 10.0403 13.728 10.6232 13.9207C11.2757 14.1363 11.8577 14.3605 12.5627 14.2269C13.3011 14.0867 14.029 13.6297 14.3219 12.9189C14.4087 12.7081 14.4517 12.4734 14.404 12.2511C14.3038 11.7913 13.6808 11.5175 13.3088 11.2952L13.3078 11.2943Z" stroke="white" stroke-width="0.75" stroke-miterlimit="10"/>
<path d="M9.7121 1.34668C4.90099 1.34668 1 5.24766 1 10.0588C1 11.8619 1.54761 13.5371 2.48541 14.9262C2.00649 16.1311 1.52757 17.336 1.0477 18.5409C2.3051 18.1174 3.56249 17.6928 4.82084 17.2692C6.21561 18.2166 7.89851 18.7709 9.71114 18.7709C14.5223 18.7709 18.4232 14.8699 18.4232 10.0588C18.4232 5.24766 14.5223 1.34668 9.71114 1.34668H9.7121Z" stroke="white" stroke-width="0.75" stroke-miterlimit="10"/>
</svg>
